<svg xmlns="http://www.w3.org/2000/svg" width="730" height="160"><g transform="translate(17 23)"><circle r="6" fill="none" stroke-width="2" stroke="#007FFF"/><circle r="3" fill="none" stroke-width="2" stroke="#007FFF"/><circle r="1.5" fill="#007FFF"/></g><g transform="translate(47 23)"><circle r="6" fill="none" stroke-width="2" stroke="#007FFF"/><circle r="3" fill="none" stroke-width="2" stroke="#007FFF"/><circle r="1.5" fill="#007FFF"/></g><g transform="translate(40 16)"><circle transform="translate(13)" r="6" fill="#33A02C"/><text transform="translate(13 3.5)" text-anchor="middle" font-size="10" font-family="Sans-serif" stroke-width="0" fill="#fff">1</text></g><g transform="translate(77 23)"><circle r="6" fill="none" stroke-width="2" stroke="#007FFF"/><circle r="3" fill="none" stroke-width="2" stroke="#007FFF"/><circle r="1.5" fill="#007FFF"/></g><g transform="translate(70 16)"><circle transform="translate(13)" r="6" fill="#1F78B4"/><text transform="translate(13 3.5)" text-anchor="middle" font-size="10" font-family="Sans-serif" stroke-width="0" fill="#fff">2</text></g><g transform="translate(107 23)"><circle r="6" fill="none" stroke-width="2" stroke="#007FFF"/><circle r="3" fill="none" stroke-width="2" stroke="#007FFF"/><circle r="1.5" fill="#007FFF"/></g><g transform="translate(100 16)"><circle transform="translate(13)" r="6" fill="#984EA3"/><text transform="translate(13 3.5)" text-anchor="middle" font-size="10" font-family="Sans-serif" stroke-width="0" fill="#fff">3</text></g><g transform="translate(137 23)"><circle r="6" fill="none" stroke-width="2" stroke="#007FFF"/><circle r="3" fill="none" stroke-width="2" stroke="#007FFF"/><circle r="1.5" fill="#007FFF"/></g><g transform="translate(130 16)"><circle transform="translate(13)" r="6" fill="#BE98CE"/><text transform="translate(13 3.5)" text-anchor="middle" font-size="10" font-family="Sans-serif" stroke-width="0" fill="#fff">3</text></g><g transform="translate(167 23)"><circle r="6" fill="none" stroke-width="2" stroke="#007FFF"/><circle r="3" fill="none" stroke-width="2" stroke="#007FFF"/><circle r="1.5" fill="#007FFF"/></g><g transform="translate(160 16)"><circle transform="translate(13)" r="6" fill="#424242"/><text transform="translate(13 3.5)" text-anchor="middle" font-size="10" font-family="Sans-serif" stroke-width="0" fill="#fff">4</text></g><g transform="translate(197 23)"><circle r="6" fill="none" stroke-width="2" stroke="#007FFF"/><circle r="3" fill="none" stroke-width="2" stroke="#007FFF"/><circle r="1.5" fill="#007FFF"/></g><g transform="translate(190 16)"><circle transform="translate(13)" r="6" fill="#EE3424"/><text transform="translate(13 3.5)" text-anchor="middle" font-size="10" font-family="Sans-serif" stroke-width="0" fill="#fff">1</text></g><g transform="translate(227 23)"><circle r="6" fill="none" stroke-width="2" stroke="#007FFF"/><circle r="3" fill="none" stroke-width="2" stroke="#007FFF"/><circle r="1.5" fill="#007FFF"/></g><g transform="translate(220 16)"><circle transform="translate(9)" r="6" fill="#EE3424"/><circle transform="translate(13)" r="6" fill="#33A02C"/><text transform="translate(13 3.5)" text-anchor="middle" font-size="10" font-family="Sans-serif" stroke-width="0" fill="#fff">1</text></g><g transform="translate(257 23)"><circle r="6" fill="none" stroke-width="2" stroke="#007FFF"/><circle r="3" fill="none" stroke-width="2" stroke="#007FFF"/><circle r="1.5" fill="#007FFF"/></g><g transform="translate(250 16)"><circle transform="translate(9)" r="6" fill="#EE3424"/><circle transform="translate(13)" r="6" fill="#1F78B4"/><text transform="translate(13 3.5)" text-anchor="middle" font-size="10" font-family="Sans-serif" stroke-width="0" fill="#fff">2</text></g><g transform="translate(287 23)"><circle r="6" fill="none" stroke-width="2" stroke="#007FFF"/><circle r="3" fill="none" stroke-width="2" stroke="#007FFF"/><circle r="1.5" fill="#007FFF"/></g><g transform="translate(280 16)"><circle transform="translate(9)" r="6" fill="#EE3424"/><circle transform="translate(13)" r="6" fill="#984EA3"/><text transform="translate(13 3.5)" text-anchor="middle" font-size="10" font-family="Sans-serif" stroke-width="0" fill="#fff">3</text></g><g transform="translate(317 23)"><circle r="6" fill="none" stroke-width="2" stroke="#007FFF"/><circle r="3" fill="none" stroke-width="2" stroke="#007FFF"/><circle r="1.5" fill="#007FFF"/></g><g transform="translate(310 16)"><circle transform="translate(9)" r="6" fill="#EE3424"/><circle transform="translate(13)" r="6" fill="#BE98CE"/><text transform="translate(13 3.5)" text-anchor="middle" font-size="10" font-family="Sans-serif" stroke-width="0" fill="#fff">3</text></g><g transform="translate(347 23)"><circle r="6" fill="none" stroke-width="2" stroke="#007FFF"/><circle r="3" fill="none" stroke-width="2" stroke="#007FFF"/><circle r="1.5" fill="#007FFF"/></g><g transform="translate(340 16)"><circle transform="translate(9)" r="6" fill="#EE3424"/><circle transform="translate(13)" r="6" fill="#424242"/><text transform="translate(13 3.5)" text-anchor="middle" font-size="10" font-family="Sans-serif" stroke-width="0" fill="#fff">4</text></g><g transform="translate(377 23)"><circle r="6" fill="none" stroke-width="2" stroke="#007FFF"/><circle r="3" fill="none" stroke-width="2" stroke="#007FFF"/><circle r="1.5" fill="#007FFF"/></g><g transform="translate(370 16)"><circle transform="translate(13)" r="6" fill="#F79A92"/><text transform="translate(13 3.5)" text-anchor="middle" font-size="10" font-family="Sans-serif" stroke-width="0" fill="#fff">2</text></g><g transform="translate(407 23)"><circle r="6" fill="none" stroke-width="2" stroke="#007FFF"/><circle r="3" fill="none" stroke-width="2" stroke="#007FFF"/><circle r="1.5" fill="#007FFF"/></g><g transform="translate(400 16)"><circle transform="translate(9)" r="6" fill="#F79A92"/><circle transform="translate(13)" r="6" fill="#33A02C"/><text transform="translate(13 3.5)" text-anchor="middle" font-size="10" font-family="Sans-serif" stroke-width="0" fill="#fff">1</text></g><g transform="translate(437 23)"><circle r="6" fill="none" stroke-width="2" stroke="#007FFF"/><circle r="3" fill="none" stroke-width="2" stroke="#007FFF"/><circle r="1.5" fill="#007FFF"/></g><g transform="translate(430 16)"><circle transform="translate(9)" r="6" fill="#F79A92"/><circle transform="translate(13)" r="6" fill="#1F78B4"/><text transform="translate(13 3.5)" text-anchor="middle" font-size="10" font-family="Sans-serif" stroke-width="0" fill="#fff">2</text></g><g transform="translate(467 23)"><circle r="6" fill="none" stroke-width="2" stroke="#007FFF"/><circle r="3" fill="none" stroke-width="2" stroke="#007FFF"/><circle r="1.5" fill="#007FFF"/></g><g transform="translate(460 16)"><circle transform="translate(9)" r="6" fill="#F79A92"/><circle transform="translate(13)" r="6" fill="#984EA3"/><text transform="translate(13 3.5)" text-anchor="middle" font-size="10" font-family="Sans-serif" stroke-width="0" fill="#fff">3</text></g><g transform="translate(497 23)"><circle r="6" fill="none" stroke-width="2" stroke="#007FFF"/><circle r="3" fill="none" stroke-width="2" stroke="#007FFF"/><circle r="1.5" fill="#007FFF"/></g><g transform="translate(490 16)"><circle transform="translate(9)" r="6" fill="#F79A92"/><circle transform="translate(13)" r="6" fill="#BE98CE"/><text transform="translate(13 3.5)" text-anchor="middle" font-size="10" font-family="Sans-serif" stroke-width="0" fill="#fff">3</text></g><g transform="translate(527 23)"><circle r="6" fill="none" stroke-width="2" stroke="#007FFF"/><circle r="3" fill="none" stroke-width="2" stroke="#007FFF"/><circle r="1.5" fill="#007FFF"/></g><g transform="translate(520 16)"><circle transform="translate(9)" r="6" fill="#F79A92"/><circle transform="translate(13)" r="6" fill="#424242"/><text transform="translate(13 3.5)" text-anchor="middle" font-size="10" font-family="Sans-serif" stroke-width="0" fill="#fff">4</text></g><g transform="translate(557 23)"><circle r="6" fill="none" stroke-width="2" stroke="#007FFF"/><circle r="3" fill="none" stroke-width="2" stroke="#007FFF"/><circle r="1.5" fill="#007FFF"/></g><g transform="translate(550 16)"><circle transform="translate(13)" r="6" fill="#FCD6D3"/><text transform="translate(13 3.5)" text-anchor="middle" font-size="10" font-family="Sans-serif" stroke-width="0" fill="#fff">3</text></g><g transform="translate(587 23)"><circle r="6" fill="none" stroke-width="2" stroke="#007FFF"/><circle r="3" fill="none" stroke-width="2" stroke="#007FFF"/><circle r="1.5" fill="#007FFF"/></g><g transform="translate(580 16)"><circle transform="translate(9)" r="6" fill="#FCD6D3"/><circle transform="translate(13)" r="6" fill="#33A02C"/><text transform="translate(13 3.5)" text-anchor="middle" font-size="10" font-family="Sans-serif" stroke-width="0" fill="#fff">1</text></g><g transform="translate(617 23)"><circle r="6" fill="none" stroke-width="2" stroke="#007FFF"/><circle r="3" fill="none" stroke-width="2" stroke="#007FFF"/><circle r="1.5" fill="#007FFF"/></g><g transform="translate(610 16)"><circle transform="translate(9)" r="6" fill="#FCD6D3"/><circle transform="translate(13)" r="6" fill="#1F78B4"/><text transform="translate(13 3.5)" text-anchor="middle" font-size="10" font-family="Sans-serif" stroke-width="0" fill="#fff">2</text></g><g transform="translate(647 23)"><circle r="6" fill="none" stroke-width="2" stroke="#007FFF"/><circle r="3" fill="none" stroke-width="2" stroke="#007FFF"/><circle r="1.5" fill="#007FFF"/></g><g transform="translate(640 16)"><circle transform="translate(9)" r="6" fill="#FCD6D3"/><circle transform="translate(13)" r="6" fill="#984EA3"/><text transform="translate(13 3.5)" text-anchor="middle" font-size="10" font-family="Sans-serif" stroke-width="0" fill="#fff">3</text></g><g transform="translate(677 23)"><circle r="6" fill="none" stroke-width="2" stroke="#007FFF"/><circle r="3" fill="none" stroke-width="2" stroke="#007FFF"/><circle r="1.5" fill="#007FFF"/></g><g transform="translate(670 16)"><circle transform="translate(9)" r="6" fill="#FCD6D3"/><circle transform="translate(13)" r="6" fill="#BE98CE"/><text transform="translate(13 3.5)" text-anchor="middle" font-size="10" font-family="Sans-serif" stroke-width="0" fill="#fff">3</text></g><g transform="translate(707 23)"><circle r="6" fill="none" stroke-width="2" stroke="#007FFF"/><circle r="3" fill="none" stroke-width="2" stroke="#007FFF"/><circle r="1.5" fill="#007FFF"/></g><g transform="translate(700 16)"><circle transform="translate(9)" r="6" fill="#FCD6D3"/><circle transform="translate(13)" r="6" fill="#424242"/><text transform="translate(13 3.5)" text-anchor="middle" font-size="10" font-family="Sans-serif" stroke-width="0" fill="#fff">4</text></g><g transform="translate(17 53)"><circle r="6" fill="none" stroke-width="2" stroke="#696969"/><circle r="3" fill="none" stroke-width="2" stroke="#696969"/><circle r="1.5" fill="#696969"/></g><g transform="translate(47 53)"><circle r="6" fill="none" stroke-width="2" stroke="#696969"/><circle r="3" fill="none" stroke-width="2" stroke="#696969"/><circle r="1.5" fill="#696969"/></g><g transform="translate(40 46)"><circle transform="translate(13)" r="6" fill="#33A02C"/><text transform="translate(13 3.5)" text-anchor="middle" font-size="10" font-family="Sans-serif" stroke-width="0" fill="#fff">1</text></g><g transform="translate(77 53)"><circle r="6" fill="none" stroke-width="2" stroke="#696969"/><circle r="3" fill="none" stroke-width="2" stroke="#696969"/><circle r="1.5" fill="#696969"/></g><g transform="translate(70 46)"><circle transform="translate(13)" r="6" fill="#1F78B4"/><text transform="translate(13 3.5)" text-anchor="middle" font-size="10" font-family="Sans-serif" stroke-width="0" fill="#fff">2</text></g><g transform="translate(107 53)"><circle r="6" fill="none" stroke-width="2" stroke="#696969"/><circle r="3" fill="none" stroke-width="2" stroke="#696969"/><circle r="1.5" fill="#696969"/></g><g transform="translate(100 46)"><circle transform="translate(13)" r="6" fill="#984EA3"/><text transform="translate(13 3.5)" text-anchor="middle" font-size="10" font-family="Sans-serif" stroke-width="0" fill="#fff">3</text></g><g transform="translate(137 53)"><circle r="6" fill="none" stroke-width="2" stroke="#696969"/><circle r="3" fill="none" stroke-width="2" stroke="#696969"/><circle r="1.5" fill="#696969"/></g><g transform="translate(130 46)"><circle transform="translate(13)" r="6" fill="#BE98CE"/><text transform="translate(13 3.5)" text-anchor="middle" font-size="10" font-family="Sans-serif" stroke-width="0" fill="#fff">3</text></g><g transform="translate(167 53)"><circle r="6" fill="none" stroke-width="2" stroke="#696969"/><circle r="3" fill="none" stroke-width="2" stroke="#696969"/><circle r="1.5" fill="#696969"/></g><g transform="translate(160 46)"><circle transform="translate(13)" r="6" fill="#424242"/><text transform="translate(13 3.5)" text-anchor="middle" font-size="10" font-family="Sans-serif" stroke-width="0" fill="#fff">4</text></g><g transform="translate(197 53)"><circle r="6" fill="none" stroke-width="2" stroke="#696969"/><circle r="3" fill="none" stroke-width="2" stroke="#696969"/><circle r="1.5" fill="#696969"/></g><g transform="translate(190 46)"><circle transform="translate(13)" r="6" fill="#EE3424"/><text transform="translate(13 3.5)" text-anchor="middle" font-size="10" font-family="Sans-serif" stroke-width="0" fill="#fff">1</text></g><g transform="translate(227 53)"><circle r="6" fill="none" stroke-width="2" stroke="#696969"/><circle r="3" fill="none" stroke-width="2" stroke="#696969"/><circle r="1.5" fill="#696969"/></g><g transform="translate(220 46)"><circle transform="translate(9)" r="6" fill="#EE3424"/><circle transform="translate(13)" r="6" fill="#33A02C"/><text transform="translate(13 3.5)" text-anchor="middle" font-size="10" font-family="Sans-serif" stroke-width="0" fill="#fff">1</text></g><g transform="translate(257 53)"><circle r="6" fill="none" stroke-width="2" stroke="#696969"/><circle r="3" fill="none" stroke-width="2" stroke="#696969"/><circle r="1.5" fill="#696969"/></g><g transform="translate(250 46)"><circle transform="translate(9)" r="6" fill="#EE3424"/><circle transform="translate(13)" r="6" fill="#1F78B4"/><text transform="translate(13 3.5)" text-anchor="middle" font-size="10" font-family="Sans-serif" stroke-width="0" fill="#fff">2</text></g><g transform="translate(287 53)"><circle r="6" fill="none" stroke-width="2" stroke="#696969"/><circle r="3" fill="none" stroke-width="2" stroke="#696969"/><circle r="1.5" fill="#696969"/></g><g transform="translate(280 46)"><circle transform="translate(9)" r="6" fill="#EE3424"/><circle transform="translate(13)" r="6" fill="#984EA3"/><text transform="translate(13 3.5)" text-anchor="middle" font-size="10" font-family="Sans-serif" stroke-width="0" fill="#fff">3</text></g><g transform="translate(317 53)"><circle r="6" fill="none" stroke-width="2" stroke="#696969"/><circle r="3" fill="none" stroke-width="2" stroke="#696969"/><circle r="1.5" fill="#696969"/></g><g transform="translate(310 46)"><circle transform="translate(9)" r="6" fill="#EE3424"/><circle transform="translate(13)" r="6" fill="#BE98CE"/><text transform="translate(13 3.5)" text-anchor="middle" font-size="10" font-family="Sans-serif" stroke-width="0" fill="#fff">3</text></g><g transform="translate(347 53)"><circle r="6" fill="none" stroke-width="2" stroke="#696969"/><circle r="3" fill="none" stroke-width="2" stroke="#696969"/><circle r="1.5" fill="#696969"/></g><g transform="translate(340 46)"><circle transform="translate(9)" r="6" fill="#EE3424"/><circle transform="translate(13)" r="6" fill="#424242"/><text transform="translate(13 3.5)" text-anchor="middle" font-size="10" font-family="Sans-serif" stroke-width="0" fill="#fff">4</text></g><g transform="translate(377 53)"><circle r="6" fill="none" stroke-width="2" stroke="#696969"/><circle r="3" fill="none" stroke-width="2" stroke="#696969"/><circle r="1.5" fill="#696969"/></g><g transform="translate(370 46)"><circle transform="translate(13)" r="6" fill="#F79A92"/><text transform="translate(13 3.5)" text-anchor="middle" font-size="10" font-family="Sans-serif" stroke-width="0" fill="#fff">2</text></g><g transform="translate(407 53)"><circle r="6" fill="none" stroke-width="2" stroke="#696969"/><circle r="3" fill="none" stroke-width="2" stroke="#696969"/><circle r="1.5" fill="#696969"/></g><g transform="translate(400 46)"><circle transform="translate(9)" r="6" fill="#F79A92"/><circle transform="translate(13)" r="6" fill="#33A02C"/><text transform="translate(13 3.5)" text-anchor="middle" font-size="10" font-family="Sans-serif" stroke-width="0" fill="#fff">1</text></g><g transform="translate(437 53)"><circle r="6" fill="none" stroke-width="2" stroke="#696969"/><circle r="3" fill="none" stroke-width="2" stroke="#696969"/><circle r="1.5" fill="#696969"/></g><g transform="translate(430 46)"><circle transform="translate(9)" r="6" fill="#F79A92"/><circle transform="translate(13)" r="6" fill="#1F78B4"/><text transform="translate(13 3.5)" text-anchor="middle" font-size="10" font-family="Sans-serif" stroke-width="0" fill="#fff">2</text></g><g transform="translate(467 53)"><circle r="6" fill="none" stroke-width="2" stroke="#696969"/><circle r="3" fill="none" stroke-width="2" stroke="#696969"/><circle r="1.5" fill="#696969"/></g><g transform="translate(460 46)"><circle transform="translate(9)" r="6" fill="#F79A92"/><circle transform="translate(13)" r="6" fill="#984EA3"/><text transform="translate(13 3.5)" text-anchor="middle" font-size="10" font-family="Sans-serif" stroke-width="0" fill="#fff">3</text></g><g transform="translate(497 53)"><circle r="6" fill="none" stroke-width="2" stroke="#696969"/><circle r="3" fill="none" stroke-width="2" stroke="#696969"/><circle r="1.5" fill="#696969"/></g><g transform="translate(490 46)"><circle transform="translate(9)" r="6" fill="#F79A92"/><circle transform="translate(13)" r="6" fill="#BE98CE"/><text transform="translate(13 3.5)" text-anchor="middle" font-size="10" font-family="Sans-serif" stroke-width="0" fill="#fff">3</text></g><g transform="translate(527 53)"><circle r="6" fill="none" stroke-width="2" stroke="#696969"/><circle r="3" fill="none" stroke-width="2" stroke="#696969"/><circle r="1.5" fill="#696969"/></g><g transform="translate(520 46)"><circle transform="translate(9)" r="6" fill="#F79A92"/><circle transform="translate(13)" r="6" fill="#424242"/><text transform="translate(13 3.5)" text-anchor="middle" font-size="10" font-family="Sans-serif" stroke-width="0" fill="#fff">4</text></g><g transform="translate(557 53)"><circle r="6" fill="none" stroke-width="2" stroke="#696969"/><circle r="3" fill="none" stroke-width="2" stroke="#696969"/><circle r="1.5" fill="#696969"/></g><g transform="translate(550 46)"><circle transform="translate(13)" r="6" fill="#FCD6D3"/><text transform="translate(13 3.5)" text-anchor="middle" font-size="10" font-family="Sans-serif" stroke-width="0" fill="#fff">3</text></g><g transform="translate(587 53)"><circle r="6" fill="none" stroke-width="2" stroke="#696969"/><circle r="3" fill="none" stroke-width="2" stroke="#696969"/><circle r="1.5" fill="#696969"/></g><g transform="translate(580 46)"><circle transform="translate(9)" r="6" fill="#FCD6D3"/><circle transform="translate(13)" r="6" fill="#33A02C"/><text transform="translate(13 3.5)" text-anchor="middle" font-size="10" font-family="Sans-serif" stroke-width="0" fill="#fff">1</text></g><g transform="translate(617 53)"><circle r="6" fill="none" stroke-width="2" stroke="#696969"/><circle r="3" fill="none" stroke-width="2" stroke="#696969"/><circle r="1.5" fill="#696969"/></g><g transform="translate(610 46)"><circle transform="translate(9)" r="6" fill="#FCD6D3"/><circle transform="translate(13)" r="6" fill="#1F78B4"/><text transform="translate(13 3.5)" text-anchor="middle" font-size="10" font-family="Sans-serif" stroke-width="0" fill="#fff">2</text></g><g transform="translate(647 53)"><circle r="6" fill="none" stroke-width="2" stroke="#696969"/><circle r="3" fill="none" stroke-width="2" stroke="#696969"/><circle r="1.5" fill="#696969"/></g><g transform="translate(640 46)"><circle transform="translate(9)" r="6" fill="#FCD6D3"/><circle transform="translate(13)" r="6" fill="#984EA3"/><text transform="translate(13 3.5)" text-anchor="middle" font-size="10" font-family="Sans-serif" stroke-width="0" fill="#fff">3</text></g><g transform="translate(677 53)"><circle r="6" fill="none" stroke-width="2" stroke="#696969"/><circle r="3" fill="none" stroke-width="2" stroke="#696969"/><circle r="1.5" fill="#696969"/></g><g transform="translate(670 46)"><circle transform="translate(9)" r="6" fill="#FCD6D3"/><circle transform="translate(13)" r="6" fill="#BE98CE"/><text transform="translate(13 3.5)" text-anchor="middle" font-size="10" font-family="Sans-serif" stroke-width="0" fill="#fff">3</text></g><g transform="translate(707 53)"><circle r="6" fill="none" stroke-width="2" stroke="#696969"/><circle r="3" fill="none" stroke-width="2" stroke="#696969"/><circle r="1.5" fill="#696969"/></g><g transform="translate(700 46)"><circle transform="translate(9)" r="6" fill="#FCD6D3"/><circle transform="translate(13)" r="6" fill="#424242"/><text transform="translate(13 3.5)" text-anchor="middle" font-size="10" font-family="Sans-serif" stroke-width="0" fill="#fff">4</text></g><g transform="translate(17 83)"><circle r="6" fill="none" stroke-width="2" stroke="#aaa"/><circle r="3" fill="none" stroke-width="2" stroke="#aaa"/><circle r="1.5" fill="#aaa"/></g><g transform="translate(47 83)"><circle r="6" fill="none" stroke-width="2" stroke="#aaa"/><circle r="3" fill="none" stroke-width="2" stroke="#aaa"/><circle r="1.5" fill="#aaa"/></g><g transform="translate(40 76)"><circle transform="translate(13)" r="6" fill="#33A02C"/><text transform="translate(13 3.5)" text-anchor="middle" font-size="10" font-family="Sans-serif" stroke-width="0" fill="#fff">1</text></g><g transform="translate(77 83)"><circle r="6" fill="none" stroke-width="2" stroke="#aaa"/><circle r="3" fill="none" stroke-width="2" stroke="#aaa"/><circle r="1.5" fill="#aaa"/></g><g transform="translate(70 76)"><circle transform="translate(13)" r="6" fill="#1F78B4"/><text transform="translate(13 3.5)" text-anchor="middle" font-size="10" font-family="Sans-serif" stroke-width="0" fill="#fff">2</text></g><g transform="translate(107 83)"><circle r="6" fill="none" stroke-width="2" stroke="#aaa"/><circle r="3" fill="none" stroke-width="2" stroke="#aaa"/><circle r="1.5" fill="#aaa"/></g><g transform="translate(100 76)"><circle transform="translate(13)" r="6" fill="#984EA3"/><text transform="translate(13 3.5)" text-anchor="middle" font-size="10" font-family="Sans-serif" stroke-width="0" fill="#fff">3</text></g><g transform="translate(137 83)"><circle r="6" fill="none" stroke-width="2" stroke="#aaa"/><circle r="3" fill="none" stroke-width="2" stroke="#aaa"/><circle r="1.5" fill="#aaa"/></g><g transform="translate(130 76)"><circle transform="translate(13)" r="6" fill="#BE98CE"/><text transform="translate(13 3.5)" text-anchor="middle" font-size="10" font-family="Sans-serif" stroke-width="0" fill="#fff">3</text></g><g transform="translate(167 83)"><circle r="6" fill="none" stroke-width="2" stroke="#aaa"/><circle r="3" fill="none" stroke-width="2" stroke="#aaa"/><circle r="1.5" fill="#aaa"/></g><g transform="translate(160 76)"><circle transform="translate(13)" r="6" fill="#424242"/><text transform="translate(13 3.5)" text-anchor="middle" font-size="10" font-family="Sans-serif" stroke-width="0" fill="#fff">4</text></g><g transform="translate(197 83)"><circle r="6" fill="none" stroke-width="2" stroke="#aaa"/><circle r="3" fill="none" stroke-width="2" stroke="#aaa"/><circle r="1.5" fill="#aaa"/></g><g transform="translate(190 76)"><circle transform="translate(13)" r="6" fill="#EE3424"/><text transform="translate(13 3.5)" text-anchor="middle" font-size="10" font-family="Sans-serif" stroke-width="0" fill="#fff">1</text></g><g transform="translate(227 83)"><circle r="6" fill="none" stroke-width="2" stroke="#aaa"/><circle r="3" fill="none" stroke-width="2" stroke="#aaa"/><circle r="1.5" fill="#aaa"/></g><g transform="translate(220 76)"><circle transform="translate(9)" r="6" fill="#EE3424"/><circle transform="translate(13)" r="6" fill="#33A02C"/><text transform="translate(13 3.5)" text-anchor="middle" font-size="10" font-family="Sans-serif" stroke-width="0" fill="#fff">1</text></g><g transform="translate(257 83)"><circle r="6" fill="none" stroke-width="2" stroke="#aaa"/><circle r="3" fill="none" stroke-width="2" stroke="#aaa"/><circle r="1.5" fill="#aaa"/></g><g transform="translate(250 76)"><circle transform="translate(9)" r="6" fill="#EE3424"/><circle transform="translate(13)" r="6" fill="#1F78B4"/><text transform="translate(13 3.5)" text-anchor="middle" font-size="10" font-family="Sans-serif" stroke-width="0" fill="#fff">2</text></g><g transform="translate(287 83)"><circle r="6" fill="none" stroke-width="2" stroke="#aaa"/><circle r="3" fill="none" stroke-width="2" stroke="#aaa"/><circle r="1.5" fill="#aaa"/></g><g transform="translate(280 76)"><circle transform="translate(9)" r="6" fill="#EE3424"/><circle transform="translate(13)" r="6" fill="#984EA3"/><text transform="translate(13 3.5)" text-anchor="middle" font-size="10" font-family="Sans-serif" stroke-width="0" fill="#fff">3</text></g><g transform="translate(317 83)"><circle r="6" fill="none" stroke-width="2" stroke="#aaa"/><circle r="3" fill="none" stroke-width="2" stroke="#aaa"/><circle r="1.5" fill="#aaa"/></g><g transform="translate(310 76)"><circle transform="translate(9)" r="6" fill="#EE3424"/><circle transform="translate(13)" r="6" fill="#BE98CE"/><text transform="translate(13 3.5)" text-anchor="middle" font-size="10" font-family="Sans-serif" stroke-width="0" fill="#fff">3</text></g><g transform="translate(347 83)"><circle r="6" fill="none" stroke-width="2" stroke="#aaa"/><circle r="3" fill="none" stroke-width="2" stroke="#aaa"/><circle r="1.5" fill="#aaa"/></g><g transform="translate(340 76)"><circle transform="translate(9)" r="6" fill="#EE3424"/><circle transform="translate(13)" r="6" fill="#424242"/><text transform="translate(13 3.5)" text-anchor="middle" font-size="10" font-family="Sans-serif" stroke-width="0" fill="#fff">4</text></g><g transform="translate(377 83)"><circle r="6" fill="none" stroke-width="2" stroke="#aaa"/><circle r="3" fill="none" stroke-width="2" stroke="#aaa"/><circle r="1.5" fill="#aaa"/></g><g transform="translate(370 76)"><circle transform="translate(13)" r="6" fill="#F79A92"/><text transform="translate(13 3.5)" text-anchor="middle" font-size="10" font-family="Sans-serif" stroke-width="0" fill="#fff">2</text></g><g transform="translate(407 83)"><circle r="6" fill="none" stroke-width="2" stroke="#aaa"/><circle r="3" fill="none" stroke-width="2" stroke="#aaa"/><circle r="1.5" fill="#aaa"/></g><g transform="translate(400 76)"><circle transform="translate(9)" r="6" fill="#F79A92"/><circle transform="translate(13)" r="6" fill="#33A02C"/><text transform="translate(13 3.5)" text-anchor="middle" font-size="10" font-family="Sans-serif" stroke-width="0" fill="#fff">1</text></g><g transform="translate(437 83)"><circle r="6" fill="none" stroke-width="2" stroke="#aaa"/><circle r="3" fill="none" stroke-width="2" stroke="#aaa"/><circle r="1.5" fill="#aaa"/></g><g transform="translate(430 76)"><circle transform="translate(9)" r="6" fill="#F79A92"/><circle transform="translate(13)" r="6" fill="#1F78B4"/><text transform="translate(13 3.5)" text-anchor="middle" font-size="10" font-family="Sans-serif" stroke-width="0" fill="#fff">2</text></g><g transform="translate(467 83)"><circle r="6" fill="none" stroke-width="2" stroke="#aaa"/><circle r="3" fill="none" stroke-width="2" stroke="#aaa"/><circle r="1.5" fill="#aaa"/></g><g transform="translate(460 76)"><circle transform="translate(9)" r="6" fill="#F79A92"/><circle transform="translate(13)" r="6" fill="#984EA3"/><text transform="translate(13 3.5)" text-anchor="middle" font-size="10" font-family="Sans-serif" stroke-width="0" fill="#fff">3</text></g><g transform="translate(497 83)"><circle r="6" fill="none" stroke-width="2" stroke="#aaa"/><circle r="3" fill="none" stroke-width="2" stroke="#aaa"/><circle r="1.5" fill="#aaa"/></g><g transform="translate(490 76)"><circle transform="translate(9)" r="6" fill="#F79A92"/><circle transform="translate(13)" r="6" fill="#BE98CE"/><text transform="translate(13 3.5)" text-anchor="middle" font-size="10" font-family="Sans-serif" stroke-width="0" fill="#fff">3</text></g><g transform="translate(527 83)"><circle r="6" fill="none" stroke-width="2" stroke="#aaa"/><circle r="3" fill="none" stroke-width="2" stroke="#aaa"/><circle r="1.5" fill="#aaa"/></g><g transform="translate(520 76)"><circle transform="translate(9)" r="6" fill="#F79A92"/><circle transform="translate(13)" r="6" fill="#424242"/><text transform="translate(13 3.5)" text-anchor="middle" font-size="10" font-family="Sans-serif" stroke-width="0" fill="#fff">4</text></g><g transform="translate(557 83)"><circle r="6" fill="none" stroke-width="2" stroke="#aaa"/><circle r="3" fill="none" stroke-width="2" stroke="#aaa"/><circle r="1.5" fill="#aaa"/></g><g transform="translate(550 76)"><circle transform="translate(13)" r="6" fill="#FCD6D3"/><text transform="translate(13 3.5)" text-anchor="middle" font-size="10" font-family="Sans-serif" stroke-width="0" fill="#fff">3</text></g><g transform="translate(587 83)"><circle r="6" fill="none" stroke-width="2" stroke="#aaa"/><circle r="3" fill="none" stroke-width="2" stroke="#aaa"/><circle r="1.5" fill="#aaa"/></g><g transform="translate(580 76)"><circle transform="translate(9)" r="6" fill="#FCD6D3"/><circle transform="translate(13)" r="6" fill="#33A02C"/><text transform="translate(13 3.5)" text-anchor="middle" font-size="10" font-family="Sans-serif" stroke-width="0" fill="#fff">1</text></g><g transform="translate(617 83)"><circle r="6" fill="none" stroke-width="2" stroke="#aaa"/><circle r="3" fill="none" stroke-width="2" stroke="#aaa"/><circle r="1.5" fill="#aaa"/></g><g transform="translate(610 76)"><circle transform="translate(9)" r="6" fill="#FCD6D3"/><circle transform="translate(13)" r="6" fill="#1F78B4"/><text transform="translate(13 3.5)" text-anchor="middle" font-size="10" font-family="Sans-serif" stroke-width="0" fill="#fff">2</text></g><g transform="translate(647 83)"><circle r="6" fill="none" stroke-width="2" stroke="#aaa"/><circle r="3" fill="none" stroke-width="2" stroke="#aaa"/><circle r="1.5" fill="#aaa"/></g><g transform="translate(640 76)"><circle transform="translate(9)" r="6" fill="#FCD6D3"/><circle transform="translate(13)" r="6" fill="#984EA3"/><text transform="translate(13 3.5)" text-anchor="middle" font-size="10" font-family="Sans-serif" stroke-width="0" fill="#fff">3</text></g><g transform="translate(677 83)"><circle r="6" fill="none" stroke-width="2" stroke="#aaa"/><circle r="3" fill="none" stroke-width="2" stroke="#aaa"/><circle r="1.5" fill="#aaa"/></g><g transform="translate(670 76)"><circle transform="translate(9)" r="6" fill="#FCD6D3"/><circle transform="translate(13)" r="6" fill="#BE98CE"/><text transform="translate(13 3.5)" text-anchor="middle" font-size="10" font-family="Sans-serif" stroke-width="0" fill="#fff">3</text></g><g transform="translate(707 83)"><circle r="6" fill="none" stroke-width="2" stroke="#aaa"/><circle r="3" fill="none" stroke-width="2" stroke="#aaa"/><circle r="1.5" fill="#aaa"/></g><g transform="translate(700 76)"><circle transform="translate(9)" r="6" fill="#FCD6D3"/><circle transform="translate(13)" r="6" fill="#424242"/><text transform="translate(13 3.5)" text-anchor="middle" font-size="10" font-family="Sans-serif" stroke-width="0" fill="#fff">4</text></g><circle r="6" fill="none" stroke-width="2" stroke="#696969" transform="translate(17 113)"/><circle r="6" fill="none" stroke-width="2" stroke="#696969" transform="translate(47 113)"/><g transform="translate(40 106)"><circle transform="translate(13)" r="6" fill="#33A02C"/><text transform="translate(13 3.5)" text-anchor="middle" font-size="10" font-family="Sans-serif" stroke-width="0" fill="#fff">1</text></g><circle r="6" fill="none" stroke-width="2" stroke="#696969" transform="translate(77 113)"/><g transform="translate(70 106)"><circle transform="translate(13)" r="6" fill="#1F78B4"/><text transform="translate(13 3.5)" text-anchor="middle" font-size="10" font-family="Sans-serif" stroke-width="0" fill="#fff">2</text></g><circle r="6" fill="none" stroke-width="2" stroke="#696969" transform="translate(107 113)"/><g transform="translate(100 106)"><circle transform="translate(13)" r="6" fill="#984EA3"/><text transform="translate(13 3.5)" text-anchor="middle" font-size="10" font-family="Sans-serif" stroke-width="0" fill="#fff">3</text></g><circle r="6" fill="none" stroke-width="2" stroke="#696969" transform="translate(137 113)"/><g transform="translate(130 106)"><circle transform="translate(13)" r="6" fill="#BE98CE"/><text transform="translate(13 3.5)" text-anchor="middle" font-size="10" font-family="Sans-serif" stroke-width="0" fill="#fff">3</text></g><circle r="6" fill="none" stroke-width="2" stroke="#696969" transform="translate(167 113)"/><g transform="translate(160 106)"><circle transform="translate(13)" r="6" fill="#424242"/><text transform="translate(13 3.5)" text-anchor="middle" font-size="10" font-family="Sans-serif" stroke-width="0" fill="#fff">4</text></g><circle r="6" fill="none" stroke-width="2" stroke="#696969" transform="translate(197 113)"/><g transform="translate(190 106)"><circle transform="translate(13)" r="6" fill="#EE3424"/><text transform="translate(13 3.5)" text-anchor="middle" font-size="10" font-family="Sans-serif" stroke-width="0" fill="#fff">1</text></g><circle r="6" fill="none" stroke-width="2" stroke="#696969" transform="translate(227 113)"/><g transform="translate(220 106)"><circle transform="translate(9)" r="6" fill="#EE3424"/><circle transform="translate(13)" r="6" fill="#33A02C"/><text transform="translate(13 3.5)" text-anchor="middle" font-size="10" font-family="Sans-serif" stroke-width="0" fill="#fff">1</text></g><circle r="6" fill="none" stroke-width="2" stroke="#696969" transform="translate(257 113)"/><g transform="translate(250 106)"><circle transform="translate(9)" r="6" fill="#EE3424"/><circle transform="translate(13)" r="6" fill="#1F78B4"/><text transform="translate(13 3.5)" text-anchor="middle" font-size="10" font-family="Sans-serif" stroke-width="0" fill="#fff">2</text></g><circle r="6" fill="none" stroke-width="2" stroke="#696969" transform="translate(287 113)"/><g transform="translate(280 106)"><circle transform="translate(9)" r="6" fill="#EE3424"/><circle transform="translate(13)" r="6" fill="#984EA3"/><text transform="translate(13 3.5)" text-anchor="middle" font-size="10" font-family="Sans-serif" stroke-width="0" fill="#fff">3</text></g><circle r="6" fill="none" stroke-width="2" stroke="#696969" transform="translate(317 113)"/><g transform="translate(310 106)"><circle transform="translate(9)" r="6" fill="#EE3424"/><circle transform="translate(13)" r="6" fill="#BE98CE"/><text transform="translate(13 3.5)" text-anchor="middle" font-size="10" font-family="Sans-serif" stroke-width="0" fill="#fff">3</text></g><circle r="6" fill="none" stroke-width="2" stroke="#696969" transform="translate(347 113)"/><g transform="translate(340 106)"><circle transform="translate(9)" r="6" fill="#EE3424"/><circle transform="translate(13)" r="6" fill="#424242"/><text transform="translate(13 3.5)" text-anchor="middle" font-size="10" font-family="Sans-serif" stroke-width="0" fill="#fff">4</text></g><circle r="6" fill="none" stroke-width="2" stroke="#696969" transform="translate(377 113)"/><g transform="translate(370 106)"><circle transform="translate(13)" r="6" fill="#F79A92"/><text transform="translate(13 3.5)" text-anchor="middle" font-size="10" font-family="Sans-serif" stroke-width="0" fill="#fff">2</text></g><circle r="6" fill="none" stroke-width="2" stroke="#696969" transform="translate(407 113)"/><g transform="translate(400 106)"><circle transform="translate(9)" r="6" fill="#F79A92"/><circle transform="translate(13)" r="6" fill="#33A02C"/><text transform="translate(13 3.5)" text-anchor="middle" font-size="10" font-family="Sans-serif" stroke-width="0" fill="#fff">1</text></g><circle r="6" fill="none" stroke-width="2" stroke="#696969" transform="translate(437 113)"/><g transform="translate(430 106)"><circle transform="translate(9)" r="6" fill="#F79A92"/><circle transform="translate(13)" r="6" fill="#1F78B4"/><text transform="translate(13 3.5)" text-anchor="middle" font-size="10" font-family="Sans-serif" stroke-width="0" fill="#fff">2</text></g><circle r="6" fill="none" stroke-width="2" stroke="#696969" transform="translate(467 113)"/><g transform="translate(460 106)"><circle transform="translate(9)" r="6" fill="#F79A92"/><circle transform="translate(13)" r="6" fill="#984EA3"/><text transform="translate(13 3.5)" text-anchor="middle" font-size="10" font-family="Sans-serif" stroke-width="0" fill="#fff">3</text></g><circle r="6" fill="none" stroke-width="2" stroke="#696969" transform="translate(497 113)"/><g transform="translate(490 106)"><circle transform="translate(9)" r="6" fill="#F79A92"/><circle transform="translate(13)" r="6" fill="#BE98CE"/><text transform="translate(13 3.5)" text-anchor="middle" font-size="10" font-family="Sans-serif" stroke-width="0" fill="#fff">3</text></g><circle r="6" fill="none" stroke-width="2" stroke="#696969" transform="translate(527 113)"/><g transform="translate(520 106)"><circle transform="translate(9)" r="6" fill="#F79A92"/><circle transform="translate(13)" r="6" fill="#424242"/><text transform="translate(13 3.5)" text-anchor="middle" font-size="10" font-family="Sans-serif" stroke-width="0" fill="#fff">4</text></g><circle r="6" fill="none" stroke-width="2" stroke="#696969" transform="translate(557 113)"/><g transform="translate(550 106)"><circle transform="translate(13)" r="6" fill="#FCD6D3"/><text transform="translate(13 3.5)" text-anchor="middle" font-size="10" font-family="Sans-serif" stroke-width="0" fill="#fff">3</text></g><circle r="6" fill="none" stroke-width="2" stroke="#696969" transform="translate(587 113)"/><g transform="translate(580 106)"><circle transform="translate(9)" r="6" fill="#FCD6D3"/><circle transform="translate(13)" r="6" fill="#33A02C"/><text transform="translate(13 3.5)" text-anchor="middle" font-size="10" font-family="Sans-serif" stroke-width="0" fill="#fff">1</text></g><circle r="6" fill="none" stroke-width="2" stroke="#696969" transform="translate(617 113)"/><g transform="translate(610 106)"><circle transform="translate(9)" r="6" fill="#FCD6D3"/><circle transform="translate(13)" r="6" fill="#1F78B4"/><text transform="translate(13 3.5)" text-anchor="middle" font-size="10" font-family="Sans-serif" stroke-width="0" fill="#fff">2</text></g><circle r="6" fill="none" stroke-width="2" stroke="#696969" transform="translate(647 113)"/><g transform="translate(640 106)"><circle transform="translate(9)" r="6" fill="#FCD6D3"/><circle transform="translate(13)" r="6" fill="#984EA3"/><text transform="translate(13 3.5)" text-anchor="middle" font-size="10" font-family="Sans-serif" stroke-width="0" fill="#fff">3</text></g><circle r="6" fill="none" stroke-width="2" stroke="#696969" transform="translate(677 113)"/><g transform="translate(670 106)"><circle transform="translate(9)" r="6" fill="#FCD6D3"/><circle transform="translate(13)" r="6" fill="#BE98CE"/><text transform="translate(13 3.5)" text-anchor="middle" font-size="10" font-family="Sans-serif" stroke-width="0" fill="#fff">3</text></g><circle r="6" fill="none" stroke-width="2" stroke="#696969" transform="translate(707 113)"/><g transform="translate(700 106)"><circle transform="translate(9)" r="6" fill="#FCD6D3"/><circle transform="translate(13)" r="6" fill="#424242"/><text transform="translate(13 3.5)" text-anchor="middle" font-size="10" font-family="Sans-serif" stroke-width="0" fill="#fff">4</text></g><circle r="6" fill="none" stroke-width="2" stroke="#ccc" transform="translate(17 143)"/><circle r="6" fill="none" stroke-width="2" stroke="#ccc" transform="translate(47 143)"/><g transform="translate(40 136)"><circle transform="translate(13)" r="6" fill="#33A02C"/><text transform="translate(13 3.5)" text-anchor="middle" font-size="10" font-family="Sans-serif" stroke-width="0" fill="#fff">1</text></g><circle r="6" fill="none" stroke-width="2" stroke="#ccc" transform="translate(77 143)"/><g transform="translate(70 136)"><circle transform="translate(13)" r="6" fill="#1F78B4"/><text transform="translate(13 3.5)" text-anchor="middle" font-size="10" font-family="Sans-serif" stroke-width="0" fill="#fff">2</text></g><circle r="6" fill="none" stroke-width="2" stroke="#ccc" transform="translate(107 143)"/><g transform="translate(100 136)"><circle transform="translate(13)" r="6" fill="#984EA3"/><text transform="translate(13 3.5)" text-anchor="middle" font-size="10" font-family="Sans-serif" stroke-width="0" fill="#fff">3</text></g><circle r="6" fill="none" stroke-width="2" stroke="#ccc" transform="translate(137 143)"/><g transform="translate(130 136)"><circle transform="translate(13)" r="6" fill="#BE98CE"/><text transform="translate(13 3.5)" text-anchor="middle" font-size="10" font-family="Sans-serif" stroke-width="0" fill="#fff">3</text></g><circle r="6" fill="none" stroke-width="2" stroke="#ccc" transform="translate(167 143)"/><g transform="translate(160 136)"><circle transform="translate(13)" r="6" fill="#424242"/><text transform="translate(13 3.5)" text-anchor="middle" font-size="10" font-family="Sans-serif" stroke-width="0" fill="#fff">4</text></g><circle r="6" fill="none" stroke-width="2" stroke="#ccc" transform="translate(197 143)"/><g transform="translate(190 136)"><circle transform="translate(13)" r="6" fill="#EE3424"/><text transform="translate(13 3.5)" text-anchor="middle" font-size="10" font-family="Sans-serif" stroke-width="0" fill="#fff">1</text></g><circle r="6" fill="none" stroke-width="2" stroke="#ccc" transform="translate(227 143)"/><g transform="translate(220 136)"><circle transform="translate(9)" r="6" fill="#EE3424"/><circle transform="translate(13)" r="6" fill="#33A02C"/><text transform="translate(13 3.5)" text-anchor="middle" font-size="10" font-family="Sans-serif" stroke-width="0" fill="#fff">1</text></g><circle r="6" fill="none" stroke-width="2" stroke="#ccc" transform="translate(257 143)"/><g transform="translate(250 136)"><circle transform="translate(9)" r="6" fill="#EE3424"/><circle transform="translate(13)" r="6" fill="#1F78B4"/><text transform="translate(13 3.5)" text-anchor="middle" font-size="10" font-family="Sans-serif" stroke-width="0" fill="#fff">2</text></g><circle r="6" fill="none" stroke-width="2" stroke="#ccc" transform="translate(287 143)"/><g transform="translate(280 136)"><circle transform="translate(9)" r="6" fill="#EE3424"/><circle transform="translate(13)" r="6" fill="#984EA3"/><text transform="translate(13 3.5)" text-anchor="middle" font-size="10" font-family="Sans-serif" stroke-width="0" fill="#fff">3</text></g><circle r="6" fill="none" stroke-width="2" stroke="#ccc" transform="translate(317 143)"/><g transform="translate(310 136)"><circle transform="translate(9)" r="6" fill="#EE3424"/><circle transform="translate(13)" r="6" fill="#BE98CE"/><text transform="translate(13 3.5)" text-anchor="middle" font-size="10" font-family="Sans-serif" stroke-width="0" fill="#fff">3</text></g><circle r="6" fill="none" stroke-width="2" stroke="#ccc" transform="translate(347 143)"/><g transform="translate(340 136)"><circle transform="translate(9)" r="6" fill="#EE3424"/><circle transform="translate(13)" r="6" fill="#424242"/><text transform="translate(13 3.5)" text-anchor="middle" font-size="10" font-family="Sans-serif" stroke-width="0" fill="#fff">4</text></g><circle r="6" fill="none" stroke-width="2" stroke="#ccc" transform="translate(377 143)"/><g transform="translate(370 136)"><circle transform="translate(13)" r="6" fill="#F79A92"/><text transform="translate(13 3.5)" text-anchor="middle" font-size="10" font-family="Sans-serif" stroke-width="0" fill="#fff">2</text></g><circle r="6" fill="none" stroke-width="2" stroke="#ccc" transform="translate(407 143)"/><g transform="translate(400 136)"><circle transform="translate(9)" r="6" fill="#F79A92"/><circle transform="translate(13)" r="6" fill="#33A02C"/><text transform="translate(13 3.5)" text-anchor="middle" font-size="10" font-family="Sans-serif" stroke-width="0" fill="#fff">1</text></g><circle r="6" fill="none" stroke-width="2" stroke="#ccc" transform="translate(437 143)"/><g transform="translate(430 136)"><circle transform="translate(9)" r="6" fill="#F79A92"/><circle transform="translate(13)" r="6" fill="#1F78B4"/><text transform="translate(13 3.5)" text-anchor="middle" font-size="10" font-family="Sans-serif" stroke-width="0" fill="#fff">2</text></g><circle r="6" fill="none" stroke-width="2" stroke="#ccc" transform="translate(467 143)"/><g transform="translate(460 136)"><circle transform="translate(9)" r="6" fill="#F79A92"/><circle transform="translate(13)" r="6" fill="#984EA3"/><text transform="translate(13 3.5)" text-anchor="middle" font-size="10" font-family="Sans-serif" stroke-width="0" fill="#fff">3</text></g><circle r="6" fill="none" stroke-width="2" stroke="#ccc" transform="translate(497 143)"/><g transform="translate(490 136)"><circle transform="translate(9)" r="6" fill="#F79A92"/><circle transform="translate(13)" r="6" fill="#BE98CE"/><text transform="translate(13 3.5)" text-anchor="middle" font-size="10" font-family="Sans-serif" stroke-width="0" fill="#fff">3</text></g><circle r="6" fill="none" stroke-width="2" stroke="#ccc" transform="translate(527 143)"/><g transform="translate(520 136)"><circle transform="translate(9)" r="6" fill="#F79A92"/><circle transform="translate(13)" r="6" fill="#424242"/><text transform="translate(13 3.5)" text-anchor="middle" font-size="10" font-family="Sans-serif" stroke-width="0" fill="#fff">4</text></g><circle r="6" fill="none" stroke-width="2" stroke="#ccc" transform="translate(557 143)"/><g transform="translate(550 136)"><circle transform="translate(13)" r="6" fill="#FCD6D3"/><text transform="translate(13 3.5)" text-anchor="middle" font-size="10" font-family="Sans-serif" stroke-width="0" fill="#fff">3</text></g><circle r="6" fill="none" stroke-width="2" stroke="#ccc" transform="translate(587 143)"/><g transform="translate(580 136)"><circle transform="translate(9)" r="6" fill="#FCD6D3"/><circle transform="translate(13)" r="6" fill="#33A02C"/><text transform="translate(13 3.5)" text-anchor="middle" font-size="10" font-family="Sans-serif" stroke-width="0" fill="#fff">1</text></g><circle r="6" fill="none" stroke-width="2" stroke="#ccc" transform="translate(617 143)"/><g transform="translate(610 136)"><circle transform="translate(9)" r="6" fill="#FCD6D3"/><circle transform="translate(13)" r="6" fill="#1F78B4"/><text transform="translate(13 3.5)" text-anchor="middle" font-size="10" font-family="Sans-serif" stroke-width="0" fill="#fff">2</text></g><circle r="6" fill="none" stroke-width="2" stroke="#ccc" transform="translate(647 143)"/><g transform="translate(640 136)"><circle transform="translate(9)" r="6" fill="#FCD6D3"/><circle transform="translate(13)" r="6" fill="#984EA3"/><text transform="translate(13 3.5)" text-anchor="middle" font-size="10" font-family="Sans-serif" stroke-width="0" fill="#fff">3</text></g><circle r="6" fill="none" stroke-width="2" stroke="#ccc" transform="translate(677 143)"/><g transform="translate(670 136)"><circle transform="translate(9)" r="6" fill="#FCD6D3"/><circle transform="translate(13)" r="6" fill="#BE98CE"/><text transform="translate(13 3.5)" text-anchor="middle" font-size="10" font-family="Sans-serif" stroke-width="0" fill="#fff">3</text></g><circle r="6" fill="none" stroke-width="2" stroke="#ccc" transform="translate(707 143)"/><g transform="translate(700 136)"><circle transform="translate(9)" r="6" fill="#FCD6D3"/><circle transform="translate(13)" r="6" fill="#424242"/><text transform="translate(13 3.5)" text-anchor="middle" font-size="10" font-family="Sans-serif" stroke-width="0" fill="#fff">4</text></g></svg>