<svg xmlns="http://www.w3.org/2000/svg" width="170" height="180"><g transform="translate(22 28)"><circle r="7" fill="none" stroke-width="2" stroke="#007FFF"/><circle r="4" fill="none" stroke-width="2" stroke="#007FFF"/><circle r="2" fill="#007FFF"/></g><g transform="translate(47 28)"><circle r="7" fill="none" stroke-width="2" stroke="#696969"/><circle r="4" fill="none" stroke-width="2" stroke="#696969"/><circle r="2" fill="#696969"/></g><g transform="translate(72 28)"><circle r="7" fill="none" stroke-width="2" stroke="#aaa"/><circle r="4" fill="none" stroke-width="2" stroke="#aaa"/><circle r="2" fill="#aaa"/></g><circle r="7" fill="none" stroke-width="2" stroke="#696969" transform="translate(97 28)"/><circle r="7" fill="none" stroke-width="2" stroke="#ccc" transform="translate(122 28)"/><g transform="translate(22 58)"><circle r="8" fill="#33A02C"/><text transform="translate(0 3)" text-anchor="middle" font-size="9" font-family="Sans-serif" font-weight="bold" fill="#FFF">1</text></g><g transform="translate(47 58)"><circle r="8" fill="#1F78B4"/><text transform="translate(0 3)" text-anchor="middle" font-size="9" font-family="Sans-serif" font-weight="bold" fill="#FFF">2</text></g><g transform="translate(72 58)"><circle r="8" fill="#984EA3"/><text transform="translate(0 3)" text-anchor="middle" font-size="9" font-family="Sans-serif" font-weight="bold" fill="#FFF">3</text></g><g transform="translate(97 58)"><circle r="8" fill="#984EA3"/><text transform="translate(0 3)" text-anchor="middle" font-size="9" font-family="Sans-serif" font-weight="bold" fill="#FFF">3A</text></g><g transform="translate(122 58)"><circle r="8" fill="#BE98CE"/><text transform="translate(0 3)" text-anchor="middle" font-size="9" font-family="Sans-serif" font-weight="bold" fill="#FFF">3B</text></g><g transform="translate(147 58)"><circle r="8" fill="#424242"/><text transform="translate(0 3)" text-anchor="middle" font-size="9" font-family="Sans-serif" font-weight="bold" fill="#FFF">4</text></g><g transform="translate(22 88)"><circle r="8" fill="#EE3424"/><text transform="translate(0 3)" text-anchor="middle" font-size="8" font-family="Sans-serif" font-weight="bold" fill="#FFF">R1</text></g><g transform="translate(47 88)"><circle r="8" fill="#F79A92"/><text transform="translate(0 3)" text-anchor="middle" font-size="8" font-family="Sans-serif" font-weight="bold" fill="#FFF">R2</text></g><g transform="translate(72 88)"><circle r="8" fill="#FCD6D3"/><text transform="translate(0 3)" text-anchor="middle" font-size="8" font-family="Sans-serif" font-weight="bold" fill="#FFF">R3</text></g><path fill="#33A02C" d="M14.5 110.5h15v15h-15z"/><text transform="translate(22 121)" text-anchor="middle" font-size="9" font-family="Sans-serif" font-weight="bold" fill="#FFF">1</text><path fill="#1F78B4" d="M39.5 110.5h15v15h-15z"/><text transform="translate(47 121)" text-anchor="middle" font-size="9" font-family="Sans-serif" font-weight="bold" fill="#FFF">2</text><path fill="#984EA3" d="M64.5 110.5h15v15h-15z"/><text transform="translate(72 121)" text-anchor="middle" font-size="9" font-family="Sans-serif" font-weight="bold" fill="#FFF">3</text><path d="M13.5 155.5h17l-8.5-15z" fill="#33A02C"/><text transform="translate(22 153.5)" text-anchor="middle" font-size="9" font-family="Sans-serif" font-weight="bold" fill="#FFF">1</text><path d="M38.5 155.5h17l-8.5-15z" fill="#1F78B4"/><text transform="translate(47 153.5)" text-anchor="middle" font-size="9" font-family="Sans-serif" font-weight="bold" fill="#FFF">2</text><path d="M63.5 155.5h17l-8.5-15z" fill="#984EA3"/><text transform="translate(72 153.5)" text-anchor="middle" font-size="9" font-family="Sans-serif" font-weight="bold" fill="#FFF">3</text></svg>