<svg xmlns="http://www.w3.org/2000/svg" width="200" height="1500"><g transform="translate(22 28)"><circle r="8" fill="#33A02C"/><text transform="translate(0 3)" text-anchor="middle" font-size="9" font-family="Sans-serif" font-weight="bold" fill="#FFF">1</text></g><g transform="translate(47 28)"><circle r="8" fill="#1F78B4"/><text transform="translate(0 3)" text-anchor="middle" font-size="9" font-family="Sans-serif" font-weight="bold" fill="#FFF">2</text></g><g transform="translate(72 28)"><circle r="8" fill="#984EA3"/><text transform="translate(0 3)" text-anchor="middle" font-size="9" font-family="Sans-serif" font-weight="bold" fill="#FFF">3</text></g><g transform="translate(97 28)"><circle r="8" fill="#424242"/><text transform="translate(0 3)" text-anchor="middle" font-size="9" font-family="Sans-serif" font-weight="bold" fill="#FFF">4</text></g><g transform="translate(22 58)"><circle r="7" fill="#33A02C" stroke="#004529"/><text transform="translate(0 3)" text-anchor="middle" font-size="9" font-family="Sans-serif" font-weight="bold" fill="#FFF">1</text></g><g transform="translate(47 58)"><circle r="7" fill="#1F78B4" stroke="#08306b"/><text transform="translate(0 3)" text-anchor="middle" font-size="9" font-family="Sans-serif" font-weight="bold" fill="#FFF">2</text></g><g transform="translate(72 58)"><circle r="7" fill="#984EA3" stroke="#49006a"/><text transform="translate(0 3)" text-anchor="middle" font-size="9" font-family="Sans-serif" font-weight="bold" fill="#FFF">3</text></g><g transform="translate(97 58)"><circle r="7" fill="#424242" stroke="#424242"/><text transform="translate(0 3)" text-anchor="middle" font-size="9" font-family="Sans-serif" font-weight="bold" fill="#FFF">4</text></g><g transform="translate(22 88)"><circle r="7" fill="#33A02C" stroke="#004529" stroke-width="2"/><text transform="translate(0 3)" text-anchor="middle" font-size="9" font-family="Sans-serif" font-weight="bold" fill="#FFF">1</text></g><g transform="translate(47 88)"><circle r="7" fill="#1F78B4" stroke="#08306b" stroke-width="2"/><text transform="translate(0 3)" text-anchor="middle" font-size="9" font-family="Sans-serif" font-weight="bold" fill="#FFF">2</text></g><g transform="translate(72 88)"><circle r="7" fill="#984EA3" stroke="#49006a" stroke-width="2"/><text transform="translate(0 3)" text-anchor="middle" font-size="9" font-family="Sans-serif" font-weight="bold" fill="#FFF">3</text></g><g transform="translate(97 88)"><circle r="7" fill="#424242" stroke="#424242" stroke-width="2"/><text transform="translate(0 3)" text-anchor="middle" font-size="9" font-family="Sans-serif" font-weight="bold" fill="#FFF">4</text></g><g transform="translate(22 118)"><circle r="8" fill="#EE3424"/><text transform="translate(0 3)" text-anchor="middle" font-size="8" font-family="Sans-serif" font-weight="bold" fill="#FFF">R1</text></g><g transform="translate(47 118)"><circle r="8" fill="#F79A92"/><text transform="translate(0 3)" text-anchor="middle" font-size="8" font-family="Sans-serif" font-weight="bold" fill="#FFF">R2</text></g><g transform="translate(72 118)"><circle r="8" fill="#FCD6D3"/><text transform="translate(0 3)" text-anchor="middle" font-size="8" font-family="Sans-serif" font-weight="bold" fill="#FFF">R3</text></g><g transform="translate(22 148)"><circle r="7" fill="#EE3424" stroke="#8b0000"/><text transform="translate(0 3)" text-anchor="middle" font-size="8" font-family="Sans-serif" font-weight="bold" fill="#FFF">R1</text></g><g transform="translate(47 148)"><circle r="7" fill="#F79A92" stroke="#8b0000"/><text transform="translate(0 3)" text-anchor="middle" font-size="8" font-family="Sans-serif" font-weight="bold" fill="#FFF">R2</text></g><g transform="translate(72 148)"><circle r="7" fill="#FCD6D3" stroke="#8b0000"/><text transform="translate(0 3)" text-anchor="middle" font-size="8" font-family="Sans-serif" font-weight="bold" fill="#FFF">R3</text></g><g transform="translate(22 178)"><circle r="7" fill="#EE3424" stroke="#8b0000" stroke-width="2"/><text transform="translate(0 3)" text-anchor="middle" font-size="8" font-family="Sans-serif" font-weight="bold" fill="#FFF">R1</text></g><g transform="translate(47 178)"><circle r="7" fill="#F79A92" stroke="#8b0000" stroke-width="2"/><text transform="translate(0 3)" text-anchor="middle" font-size="8" font-family="Sans-serif" font-weight="bold" fill="#FFF">R2</text></g><g transform="translate(72 178)"><circle r="7" fill="#FCD6D3" stroke="#8b0000" stroke-width="2"/><text transform="translate(0 3)" text-anchor="middle" font-size="8" font-family="Sans-serif" font-weight="bold" fill="#FFF">R3</text></g><g transform="translate(22 208)"><rect x="-7.5" y="-7.5" rx="4" ry="4" width="15" height="15" fill="#33A02C"/><text transform="translate(0 3)" text-anchor="middle" font-size="9" font-family="Sans-serif" font-weight="bold" fill="#FFF">1</text></g><g transform="translate(47 208)"><rect x="-7.5" y="-7.5" rx="4" ry="4" width="15" height="15" fill="#1F78B4"/><text transform="translate(0 3)" text-anchor="middle" font-size="9" font-family="Sans-serif" font-weight="bold" fill="#FFF">2</text></g><g transform="translate(72 208)"><rect x="-7.5" y="-7.5" rx="4" ry="4" width="15" height="15" fill="#984EA3"/><text transform="translate(0 3)" text-anchor="middle" font-size="9" font-family="Sans-serif" font-weight="bold" fill="#FFF">3</text></g><g transform="translate(22 238)"><rect x="-7" y="-7" rx="4" ry="4" width="14" height="14" fill="#33A02C" stroke="#004529"/><text transform="translate(0 3)" text-anchor="middle" font-size="9" font-family="Sans-serif" font-weight="bold" fill="#FFF">1</text></g><g transform="translate(47 238)"><rect x="-7" y="-7" rx="4" ry="4" width="14" height="14" fill="#1F78B4" stroke="#08306b"/><text transform="translate(0 3)" text-anchor="middle" font-size="9" font-family="Sans-serif" font-weight="bold" fill="#FFF">2</text></g><g transform="translate(72 238)"><rect x="-7" y="-7" rx="4" ry="4" width="14" height="14" fill="#984EA3" stroke="#49006a"/><text transform="translate(0 3)" text-anchor="middle" font-size="9" font-family="Sans-serif" font-weight="bold" fill="#FFF">3</text></g><g transform="translate(22 268)"><rect x="-7" y="-7" rx="4" ry="4" width="14" height="14" fill="#33A02C" stroke="#004529" stroke-width="2"/><text transform="translate(0 3)" text-anchor="middle" font-size="9" font-family="Sans-serif" font-weight="bold" fill="#FFF">1</text></g><g transform="translate(47 268)"><rect x="-7" y="-7" rx="4" ry="4" width="14" height="14" fill="#1F78B4" stroke="#08306b" stroke-width="2"/><text transform="translate(0 3)" text-anchor="middle" font-size="9" font-family="Sans-serif" font-weight="bold" fill="#FFF">2</text></g><g transform="translate(72 268)"><rect x="-7" y="-7" rx="4" ry="4" width="14" height="14" fill="#984EA3" stroke="#49006a" stroke-width="2"/><text transform="translate(0 3)" text-anchor="middle" font-size="9" font-family="Sans-serif" font-weight="bold" fill="#FFF">3</text></g><path fill="#33A02C" d="M14.5 290.5h15v15h-15z"/><text transform="translate(22 301)" text-anchor="middle" font-size="9" font-family="Sans-serif" font-weight="bold" fill="#FFF">1</text><path fill="#1F78B4" d="M39.5 290.5h15v15h-15z"/><text transform="translate(47 301)" text-anchor="middle" font-size="9" font-family="Sans-serif" font-weight="bold" fill="#FFF">2</text><path fill="#984EA3" d="M64.5 290.5h15v15h-15z"/><text transform="translate(72 301)" text-anchor="middle" font-size="9" font-family="Sans-serif" font-weight="bold" fill="#FFF">3</text><path fill="#33A02C" stroke="#004529" d="M15 321h14v14H15z"/><text transform="translate(22 331)" text-anchor="middle" font-size="9" font-family="Sans-serif" font-weight="bold" fill="#FFF">1</text><path fill="#1F78B4" stroke="#08306b" d="M40 321h14v14H40z"/><text transform="translate(47 331)" text-anchor="middle" font-size="9" font-family="Sans-serif" font-weight="bold" fill="#FFF">2</text><path fill="#984EA3" stroke="#49006a" d="M65 321h14v14H65z"/><text transform="translate(72 331)" text-anchor="middle" font-size="9" font-family="Sans-serif" font-weight="bold" fill="#FFF">3</text><path fill="#33A02C" stroke="#004529" stroke-width="2" d="M15 351h14v14H15z"/><text transform="translate(22 361)" text-anchor="middle" font-size="9" font-family="Sans-serif" font-weight="bold" fill="#FFF">1</text><path fill="#1F78B4" stroke="#08306b" stroke-width="2" d="M40 351h14v14H40z"/><text transform="translate(47 361)" text-anchor="middle" font-size="9" font-family="Sans-serif" font-weight="bold" fill="#FFF">2</text><path fill="#984EA3" stroke="#49006a" stroke-width="2" d="M65 351h14v14H65z"/><text transform="translate(72 361)" text-anchor="middle" font-size="9" font-family="Sans-serif" font-weight="bold" fill="#FFF">3</text><path d="M13.5 395.5h17l-8.5-15z" fill="#33A02C"/><text transform="translate(22 393.5)" text-anchor="middle" font-size="9" font-family="Sans-serif" font-weight="bold" fill="#FFF">1</text><path d="M38.5 395.5h17l-8.5-15z" fill="#1F78B4"/><text transform="translate(47 393.5)" text-anchor="middle" font-size="9" font-family="Sans-serif" font-weight="bold" fill="#FFF">2</text><path d="M63.5 395.5h17l-8.5-15z" fill="#984EA3"/><text transform="translate(72 393.5)" text-anchor="middle" font-size="9" font-family="Sans-serif" font-weight="bold" fill="#FFF">3</text><path d="M14 425h16l-8-14z" fill="#33A02C" stroke="#004529"/><text transform="translate(22 423.5)" text-anchor="middle" font-size="9" font-family="Sans-serif" font-weight="bold" fill="#FFF">1</text><path d="M39 425h16l-8-14z" fill="#1F78B4" stroke="#08306b"/><text transform="translate(47 423.5)" text-anchor="middle" font-size="9" font-family="Sans-serif" font-weight="bold" fill="#FFF">2</text><path d="M64 425h16l-8-14z" fill="#984EA3" stroke="#49006a"/><text transform="translate(72 423.5)" text-anchor="middle" font-size="9" font-family="Sans-serif" font-weight="bold" fill="#FFF">3</text><path d="M14 455h16l-8-14z" fill="#33A02C" stroke="#004529" stroke-width="2"/><text transform="translate(22 453.5)" text-anchor="middle" font-size="9" font-family="Sans-serif" font-weight="bold" fill="#FFF">1</text><path d="M39 455h16l-8-14z" fill="#1F78B4" stroke="#08306b" stroke-width="2"/><text transform="translate(47 453.5)" text-anchor="middle" font-size="9" font-family="Sans-serif" font-weight="bold" fill="#FFF">2</text><path d="M64 455h16l-8-14z" fill="#984EA3" stroke="#49006a" stroke-width="2"/><text transform="translate(72 453.5)" text-anchor="middle" font-size="9" font-family="Sans-serif" font-weight="bold" fill="#FFF">3</text><path d="M30.5 470.5h-17l8.5 15z" fill="#33A02C"/><text transform="translate(22 479)" text-anchor="middle" font-size="9" font-family="Sans-serif" font-weight="bold" fill="#FFF">1</text><path d="M55.5 470.5h-17l8.5 15z" fill="#1F78B4"/><text transform="translate(47 479)" text-anchor="middle" font-size="9" font-family="Sans-serif" font-weight="bold" fill="#FFF">2</text><path d="M80.5 470.5h-17l8.5 15z" fill="#984EA3"/><text transform="translate(72 479)" text-anchor="middle" font-size="9" font-family="Sans-serif" font-weight="bold" fill="#FFF">3</text><path d="M30 501H14l8 14z" fill="#33A02C" stroke="#004529"/><text transform="translate(22 509)" text-anchor="middle" font-size="9" font-family="Sans-serif" font-weight="bold" fill="#FFF">1</text><path d="M55 501H39l8 14z" fill="#1F78B4" stroke="#08306b"/><text transform="translate(47 509)" text-anchor="middle" font-size="9" font-family="Sans-serif" font-weight="bold" fill="#FFF">2</text><path d="M80 501H64l8 14z" fill="#984EA3" stroke="#49006a"/><text transform="translate(72 509)" text-anchor="middle" font-size="9" font-family="Sans-serif" font-weight="bold" fill="#FFF">3</text><path d="M30 531H14l8 14z" fill="#33A02C" stroke="#004529" stroke-width="2"/><text transform="translate(22 539)" text-anchor="middle" font-size="9" font-family="Sans-serif" font-weight="bold" fill="#FFF">1</text><path d="M55 531H39l8 14z" fill="#1F78B4" stroke="#08306b" stroke-width="2"/><text transform="translate(47 539)" text-anchor="middle" font-size="9" font-family="Sans-serif" font-weight="bold" fill="#FFF">2</text><path d="M80 531H64l8 14z" fill="#984EA3" stroke="#49006a" stroke-width="2"/><text transform="translate(72 539)" text-anchor="middle" font-size="9" font-family="Sans-serif" font-weight="bold" fill="#FFF">3</text><path d="M14.5 559.5v17l15-8.5z" fill="#33A02C"/><text transform="translate(19.5 571)" text-anchor="middle" font-size="9" font-family="Sans-serif" font-weight="bold" fill="#FFF">1</text><path d="M39.5 559.5v17l15-8.5z" fill="#1F78B4"/><text transform="translate(44.5 571)" text-anchor="middle" font-size="9" font-family="Sans-serif" font-weight="bold" fill="#FFF">2</text><path d="M64.5 559.5v17l15-8.5z" fill="#984EA3"/><text transform="translate(69.5 571)" text-anchor="middle" font-size="9" font-family="Sans-serif" font-weight="bold" fill="#FFF">3</text><path d="M15 590v16l14-8z" fill="#33A02C" stroke="#004529"/><text transform="translate(19.5 601)" text-anchor="middle" font-size="9" font-family="Sans-serif" font-weight="bold" fill="#FFF">1</text><path d="M40 590v16l14-8z" fill="#1F78B4" stroke="#08306b"/><text transform="translate(44.5 601)" text-anchor="middle" font-size="9" font-family="Sans-serif" font-weight="bold" fill="#FFF">2</text><path d="M65 590v16l14-8z" fill="#984EA3" stroke="#49006a"/><text transform="translate(69.5 601)" text-anchor="middle" font-size="9" font-family="Sans-serif" font-weight="bold" fill="#FFF">3</text><path d="M15 620v16l14-8z" fill="#33A02C" stroke="#004529" stroke-width="2"/><text transform="translate(19.5 631)" text-anchor="middle" font-size="9" font-family="Sans-serif" font-weight="bold" fill="#FFF">1</text><path d="M40 620v16l14-8z" fill="#1F78B4" stroke="#08306b" stroke-width="2"/><text transform="translate(44.5 631)" text-anchor="middle" font-size="9" font-family="Sans-serif" font-weight="bold" fill="#FFF">2</text><path d="M65 620v16l14-8z" fill="#984EA3" stroke="#49006a" stroke-width="2"/><text transform="translate(69.5 631)" text-anchor="middle" font-size="9" font-family="Sans-serif" font-weight="bold" fill="#FFF">3</text><path d="M29.5 666.5v-17l-15 8.5z" fill="#33A02C"/><text transform="translate(25 661)" text-anchor="middle" font-size="9" font-family="Sans-serif" font-weight="bold" fill="#FFF">1</text><path d="M54.5 666.5v-17l-15 8.5z" fill="#1F78B4"/><text transform="translate(50 661)" text-anchor="middle" font-size="9" font-family="Sans-serif" font-weight="bold" fill="#FFF">2</text><path d="M79.5 666.5v-17l-15 8.5z" fill="#984EA3"/><text transform="translate(75 661)" text-anchor="middle" font-size="9" font-family="Sans-serif" font-weight="bold" fill="#FFF">3</text><path d="M29 696v-16l-14 8z" fill="#33A02C" stroke="#004529"/><text transform="translate(25 691)" text-anchor="middle" font-size="9" font-family="Sans-serif" font-weight="bold" fill="#FFF">1</text><path d="M54 696v-16l-14 8z" fill="#1F78B4" stroke="#08306b"/><text transform="translate(50 691)" text-anchor="middle" font-size="9" font-family="Sans-serif" font-weight="bold" fill="#FFF">2</text><path d="M79 696v-16l-14 8z" fill="#984EA3" stroke="#49006a"/><text transform="translate(75 691)" text-anchor="middle" font-size="9" font-family="Sans-serif" font-weight="bold" fill="#FFF">3</text><path d="M29 726v-16l-14 8z" fill="#33A02C" stroke="#004529" stroke-width="2"/><text transform="translate(25 721)" text-anchor="middle" font-size="9" font-family="Sans-serif" font-weight="bold" fill="#FFF">1</text><path d="M54 726v-16l-14 8z" fill="#1F78B4" stroke="#08306b" stroke-width="2"/><text transform="translate(50 721)" text-anchor="middle" font-size="9" font-family="Sans-serif" font-weight="bold" fill="#FFF">2</text><path d="M79 726v-16l-14 8z" fill="#984EA3" stroke="#49006a" stroke-width="2"/><text transform="translate(75 721)" text-anchor="middle" font-size="9" font-family="Sans-serif" font-weight="bold" fill="#FFF">3</text><path d="M15.5 747l6.5-5 6.5 5-2.5 8h-8l-2.5-8z" fill="#33A02C" stroke="#33A02C"/><text transform="translate(22 753)" text-anchor="middle" font-size="9" font-family="Sans-serif" font-weight="bold" fill="#FFF">1</text><path d="M40.5 747l6.5-5 6.5 5-2.5 8h-8l-2.5-8z" fill="#1F78B4" stroke="#1F78B4"/><text transform="translate(47 753)" text-anchor="middle" font-size="9" font-family="Sans-serif" font-weight="bold" fill="#FFF">2</text><path d="M65.5 747l6.5-5 6.5 5-2.5 8h-8l-2.5-8z" fill="#984EA3" stroke="#984EA3"/><text transform="translate(72 753)" text-anchor="middle" font-size="9" font-family="Sans-serif" font-weight="bold" fill="#FFF">3</text><path d="M15.5 777l6.5-5 6.5 5-2.5 8h-8l-2.5-8z" fill="#33A02C" stroke="#004529"/><text transform="translate(22 783)" text-anchor="middle" font-size="9" font-family="Sans-serif" font-weight="bold" fill="#FFF">1</text><path d="M40.5 777l6.5-5 6.5 5-2.5 8h-8l-2.5-8z" fill="#1F78B4" stroke="#08306b"/><text transform="translate(47 783)" text-anchor="middle" font-size="9" font-family="Sans-serif" font-weight="bold" fill="#FFF">2</text><path d="M65.5 777l6.5-5 6.5 5-2.5 8h-8l-2.5-8z" fill="#984EA3" stroke="#49006a"/><text transform="translate(72 783)" text-anchor="middle" font-size="9" font-family="Sans-serif" font-weight="bold" fill="#FFF">3</text><path d="M15.5 807l6.5-5 6.5 5-2.5 8h-8l-2.5-8z" fill="#33A02C" stroke="#004529" stroke-width="2"/><text transform="translate(22 813)" text-anchor="middle" font-size="9" font-family="Sans-serif" font-weight="bold" fill="#FFF">1</text><path d="M40.5 807l6.5-5 6.5 5-2.5 8h-8l-2.5-8z" fill="#1F78B4" stroke="#08306b" stroke-width="2"/><text transform="translate(47 813)" text-anchor="middle" font-size="9" font-family="Sans-serif" font-weight="bold" fill="#FFF">2</text><path d="M65.5 807l6.5-5 6.5 5-2.5 8h-8l-2.5-8z" fill="#984EA3" stroke="#49006a" stroke-width="2"/><text transform="translate(72 813)" text-anchor="middle" font-size="9" font-family="Sans-serif" font-weight="bold" fill="#FFF">3</text><path d="M15 838l3-6h8l3 6-3 6h-8l-3-6z" fill="#33A02C" stroke="#33A02C"/><text transform="translate(22 841.5)" text-anchor="middle" font-size="9" font-family="Sans-serif" font-weight="bold" fill="#FFF">1</text><path d="M40 838l3-6h8l3 6-3 6h-8l-3-6z" fill="#1F78B4" stroke="#1F78B4"/><text transform="translate(47 841.5)" text-anchor="middle" font-size="9" font-family="Sans-serif" font-weight="bold" fill="#FFF">2</text><path d="M65 838l3-6h8l3 6-3 6h-8l-3-6z" fill="#984EA3" stroke="#984EA3"/><text transform="translate(72 841.5)" text-anchor="middle" font-size="9" font-family="Sans-serif" font-weight="bold" fill="#FFF">3</text><path d="M15 868l3-6h8l3 6-3 6h-8l-3-6z" fill="#33A02C" stroke="#004529"/><text transform="translate(22 871.5)" text-anchor="middle" font-size="9" font-family="Sans-serif" font-weight="bold" fill="#FFF">1</text><path d="M40 868l3-6h8l3 6-3 6h-8l-3-6z" fill="#1F78B4" stroke="#08306b"/><text transform="translate(47 871.5)" text-anchor="middle" font-size="9" font-family="Sans-serif" font-weight="bold" fill="#FFF">2</text><path d="M65 868l3-6h8l3 6-3 6h-8l-3-6z" fill="#984EA3" stroke="#49006a"/><text transform="translate(72 871.5)" text-anchor="middle" font-size="9" font-family="Sans-serif" font-weight="bold" fill="#FFF">3</text><path d="M15 898l3-6h8l3 6-3 6h-8l-3-6z" fill="#33A02C" stroke="#004529" stroke-width="2"/><text transform="translate(22 901.5)" text-anchor="middle" font-size="9" font-family="Sans-serif" font-weight="bold" fill="#FFF">1</text><path d="M40 898l3-6h8l3 6-3 6h-8l-3-6z" fill="#1F78B4" stroke="#08306b" stroke-width="2"/><text transform="translate(47 901.5)" text-anchor="middle" font-size="9" font-family="Sans-serif" font-weight="bold" fill="#FFF">2</text><path d="M65 898l3-6h8l3 6-3 6h-8l-3-6z" fill="#984EA3" stroke="#49006a" stroke-width="2"/><text transform="translate(72 901.5)" text-anchor="middle" font-size="9" font-family="Sans-serif" font-weight="bold" fill="#FFF">3</text><g transform="translate(22 928)"><circle r="7" fill="#EE3424" transform="translate(-1)"/><circle r="7" fill="#33A02C" transform="translate(1)"/><text transform="translate(1 3)" text-anchor="middle" font-size="9" font-family="Sans-serif" font-weight="bold" fill="#FFF">1</text></g><g transform="translate(47 928)"><circle r="7" fill="#EE3424" transform="translate(-1)"/><circle r="7" fill="#1F78B4" transform="translate(1)"/><text transform="translate(1 3)" text-anchor="middle" font-size="9" font-family="Sans-serif" font-weight="bold" fill="#FFF">2</text></g><g transform="translate(72 928)"><circle r="7" fill="#EE3424" transform="translate(-1)"/><circle r="7" fill="#984EA3" transform="translate(1)"/><text transform="translate(1 3)" text-anchor="middle" font-size="9" font-family="Sans-serif" font-weight="bold" fill="#FFF">3</text></g><g transform="translate(97 928)"><circle r="7" fill="#EE3424" transform="translate(-1)"/><circle r="7" fill="#424242" transform="translate(1)"/><text transform="translate(1 3)" text-anchor="middle" font-size="9" font-family="Sans-serif" font-weight="bold" fill="#FFF">4</text></g><g transform="translate(22 958)"><circle r="7" fill="#F79A92" transform="translate(-1)"/><circle r="7" fill="#33A02C" transform="translate(1)"/><text transform="translate(1 3)" text-anchor="middle" font-size="9" font-family="Sans-serif" font-weight="bold" fill="#FFF">1</text></g><g transform="translate(47 958)"><circle r="7" fill="#F79A92" transform="translate(-1)"/><circle r="7" fill="#1F78B4" transform="translate(1)"/><text transform="translate(1 3)" text-anchor="middle" font-size="9" font-family="Sans-serif" font-weight="bold" fill="#FFF">2</text></g><g transform="translate(72 958)"><circle r="7" fill="#F79A92" transform="translate(-1)"/><circle r="7" fill="#984EA3" transform="translate(1)"/><text transform="translate(1 3)" text-anchor="middle" font-size="9" font-family="Sans-serif" font-weight="bold" fill="#FFF">3</text></g><g transform="translate(97 958)"><circle r="7" fill="#F79A92" transform="translate(-1)"/><circle r="7" fill="#424242" transform="translate(1)"/><text transform="translate(1 3)" text-anchor="middle" font-size="9" font-family="Sans-serif" font-weight="bold" fill="#FFF">4</text></g><g transform="translate(22 988)"><circle r="7" fill="#FCD6D3" transform="translate(-1)"/><circle r="7" fill="#33A02C" transform="translate(1)"/><text transform="translate(1 3)" text-anchor="middle" font-size="9" font-family="Sans-serif" font-weight="bold" fill="#FFF">1</text></g><g transform="translate(47 988)"><circle r="7" fill="#FCD6D3" transform="translate(-1)"/><circle r="7" fill="#1F78B4" transform="translate(1)"/><text transform="translate(1 3)" text-anchor="middle" font-size="9" font-family="Sans-serif" font-weight="bold" fill="#FFF">2</text></g><g transform="translate(72 988)"><circle r="7" fill="#FCD6D3" transform="translate(-1)"/><circle r="7" fill="#984EA3" transform="translate(1)"/><text transform="translate(1 3)" text-anchor="middle" font-size="9" font-family="Sans-serif" font-weight="bold" fill="#FFF">3</text></g><g transform="translate(97 988)"><circle r="7" fill="#FCD6D3" transform="translate(-1)"/><circle r="7" fill="#424242" transform="translate(1)"/><text transform="translate(1 3)" text-anchor="middle" font-size="9" font-family="Sans-serif" font-weight="bold" fill="#FFF">4</text></g></svg>