<svg xmlns="http://www.w3.org/2000/svg" width="120" height="270"><g transform="translate(22 28)"><circle r="7" fill="#33A02C"/><text transform="translate(0 3)" text-anchor="middle" font-size="9" font-family="Sans-serif" font-weight="bold" fill="#FFF">1</text></g><g transform="translate(47 28)"><circle r="7" fill="#1F78B4"/><text transform="translate(0 3)" text-anchor="middle" font-size="9" font-family="Sans-serif" font-weight="bold" fill="#FFF">2</text></g><g transform="translate(72 28)"><circle r="7" fill="#984EA3"/><text transform="translate(0 3)" text-anchor="middle" font-size="9" font-family="Sans-serif" font-weight="bold" fill="#FFF">3</text></g><g transform="translate(97 28)"><circle r="7" fill="#424242"/><text transform="translate(0 3)" text-anchor="middle" font-size="9" font-family="Sans-serif" font-weight="bold" fill="#FFF">4</text></g><g transform="translate(22 58)"><circle r="7" fill="#EE3424"/><text transform="translate(0 3)" text-anchor="middle" font-size="8" font-family="Sans-serif" font-weight="bold" fill="#FFF">R1</text></g><g transform="translate(47 58)"><circle r="7" fill="#F79A92"/><text transform="translate(0 3)" text-anchor="middle" font-size="8" font-family="Sans-serif" font-weight="bold" fill="#FFF">R2</text></g><g transform="translate(72 58)"><circle r="7" fill="#FCD6D3"/><text transform="translate(0 3)" text-anchor="middle" font-size="8" font-family="Sans-serif" font-weight="bold" fill="#FFF">R3</text></g><g transform="translate(22 88)"><rect x="-7" y="-7" rx="4" ry="4" width="14" height="14" fill="#33A02C"/><text transform="translate(0 3)" text-anchor="middle" font-size="9" font-family="Sans-serif" font-weight="bold" fill="#FFF">1</text></g><g transform="translate(47 88)"><rect x="-7" y="-7" rx="4" ry="4" width="14" height="14" fill="#1F78B4"/><text transform="translate(0 3)" text-anchor="middle" font-size="9" font-family="Sans-serif" font-weight="bold" fill="#FFF">2</text></g><g transform="translate(72 88)"><rect x="-7" y="-7" rx="4" ry="4" width="14" height="14" fill="#984EA3"/><text transform="translate(0 3)" text-anchor="middle" font-size="9" font-family="Sans-serif" font-weight="bold" fill="#FFF">3</text></g><path d="M15 110v16l14-8z" fill="#33A02C"/><text transform="translate(19 121)" text-anchor="middle" font-size="9" font-family="Sans-serif" font-weight="bold" fill="#FFF">1</text><path d="M40 110v16l14-8z" fill="#1F78B4"/><text transform="translate(44 121)" text-anchor="middle" font-size="9" font-family="Sans-serif" font-weight="bold" fill="#FFF">2</text><path d="M65 110v16l14-8z" fill="#984EA3"/><text transform="translate(69 121)" text-anchor="middle" font-size="9" font-family="Sans-serif" font-weight="bold" fill="#FFF">3</text><path d="M15 149l6.583-8 6.584 7.75-6.584 7.75L15 148.75z" fill="#33A02C"/><text transform="translate(21.5 152)" text-anchor="middle" font-size="9" font-family="Sans-serif" font-weight="bold" fill="#FFF">1</text><path d="M40 149l6.583-8 6.584 7.75-6.584 7.75L40 148.75z" fill="#1F78B4"/><text transform="translate(46.5 152)" text-anchor="middle" font-size="9" font-family="Sans-serif" font-weight="bold" fill="#FFF">2</text><path d="M65 149l6.583-8 6.584 7.75-6.584 7.75L65 148.75z" fill="#984EA3"/><text transform="translate(71.5 152)" text-anchor="middle" font-size="9" font-family="Sans-serif" font-weight="bold" fill="#FFF">3</text><path d="M14 185h16l-8-14z" fill="#33A02C"/><text transform="translate(22 183)" text-anchor="middle" font-size="9" font-family="Sans-serif" font-weight="bold" fill="#FFF">1</text><path d="M39 185h16l-8-14z" fill="#1F78B4"/><text transform="translate(47 183)" text-anchor="middle" font-size="9" font-family="Sans-serif" font-weight="bold" fill="#FFF">2</text><path d="M64 185h16l-8-14z" fill="#984EA3"/><text transform="translate(72 183)" text-anchor="middle" font-size="9" font-family="Sans-serif" font-weight="bold" fill="#FFF">3</text><path d="M15.5 207l6.5-5 6.5 5-2.5 8h-8l-2.5-8z" fill="#33A02C"/><text transform="translate(22 213)" text-anchor="middle" font-size="9" font-family="Sans-serif" font-weight="bold" fill="#FFF">1</text><path d="M40.5 207l6.5-5 6.5 5-2.5 8h-8l-2.5-8z" fill="#1F78B4"/><text transform="translate(47 213)" text-anchor="middle" font-size="9" font-family="Sans-serif" font-weight="bold" fill="#FFF">2</text><path d="M65.5 207l6.5-5 6.5 5-2.5 8h-8l-2.5-8z" fill="#984EA3"/><text transform="translate(72 213)" text-anchor="middle" font-size="9" font-family="Sans-serif" font-weight="bold" fill="#FFF">3</text><path d="M15 238l3-6h8l3 6-3 6h-8l-3-6z" fill="#33A02C"/><text transform="translate(22 241.5)" text-anchor="middle" font-size="9" font-family="Sans-serif" font-weight="bold" fill="#FFF">1</text><path d="M40 238l3-6h8l3 6-3 6h-8l-3-6z" fill="#1F78B4"/><text transform="translate(47 241.5)" text-anchor="middle" font-size="9" font-family="Sans-serif" font-weight="bold" fill="#FFF">2</text><path d="M65 238l3-6h8l3 6-3 6h-8l-3-6z" fill="#984EA3"/><text transform="translate(72 241.5)" text-anchor="middle" font-size="9" font-family="Sans-serif" font-weight="bold" fill="#FFF">3</text></svg>