<?xml version="1.0" encoding="utf-8"?>
<!DOCTYPE svg PUBLIC "-//W3C//DTD SVG 1.1//EN" "http://www.w3.org/Graphics/SVG/1.1/DTD/svg11.dtd">
<svg version="1.1" xmlns="http://www.w3.org/2000/svg" xmlns:xlink="http://www.w3.org/1999/xlink" width="200" height="800">

  <!--Oncogenic icons-->
  <g transform="translate(10, 10)">
    <g transform="translate(5, 5)">
      <g transform="translate(7, 13)">
        <circle r="6" fill="none" stroke-width="2" stroke="#007FFF"></circle>
        <circle r="3" fill="none" stroke-width="2" stroke="#007FFF"></circle>
        <circle r="1.5" fill="#007FFF" stroke="none"></circle>
      </g>
      <g transform="translate(0, 6)">
        <circle transform="translate(13, 0)" r="6" fill="#33A02C"></circle>
        <text transform="translate(13, 3.5)" text-anchor="middle" font-size="10" font-family="Sans-serif" stroke-width="0" fill="#ffffff">1</text>
      </g>
    </g>
    <g transform="translate(30, 5)">
      <g transform="translate(7, 13)">
        <circle r="6" fill="none" stroke-width="2" stroke="#007FFF"></circle>
        <circle r="3" fill="none" stroke-width="2" stroke="#007FFF"></circle>
        <circle r="1.5" fill="#007FFF" stroke="none"></circle>
      </g>
      <g transform="translate(0, 6)">
        <circle transform="translate(13, 0)" r="6" fill="#1F78B4"></circle>
        <text transform="translate(13, 3.5)" text-anchor="middle" font-size="10" font-family="Sans-serif" stroke-width="0" fill="#ffffff">2</text>
      </g>
    </g>
    <g transform="translate(55, 5)">
      <g transform="translate(7, 13)">
        <circle r="6" fill="none" stroke-width="2" stroke="#007FFF"></circle>
        <circle r="3" fill="none" stroke-width="2" stroke="#007FFF"></circle>
        <circle r="1.5" fill="#007FFF" stroke="none"></circle>
      </g>
      <g transform="translate(0, 6)">
        <circle transform="translate(13, 0)" r="6" fill="#80B1D3"></circle>
        <text transform="translate(13, 3.5)" text-anchor="middle" font-size="10" font-family="Sans-serif" stroke-width="0" fill="#ffffff">2</text>
      </g>
    </g>
    <g transform="translate(80, 5)">
      <g transform="translate(7, 13)">
        <circle r="6" fill="none" stroke-width="2" stroke="#007FFF"></circle>
        <circle r="3" fill="none" stroke-width="2" stroke="#007FFF"></circle>
        <circle r="1.5" fill="#007FFF" stroke="none"></circle>
      </g>
      <g transform="translate(0, 6)">
        <circle transform="translate(13, 0)" r="6" fill="#984EA3"></circle>
        <text transform="translate(13, 3.5)" text-anchor="middle" font-size="10" font-family="Sans-serif" stroke-width="0" fill="#ffffff">3</text>
      </g>
    </g>
    <g transform="translate(105, 5)">
      <g transform="translate(7, 13)">
        <circle r="6" fill="none" stroke-width="2" stroke="#007FFF"></circle>
        <circle r="3" fill="none" stroke-width="2" stroke="#007FFF"></circle>
        <circle r="1.5" fill="#007FFF" stroke="none"></circle>
      </g>
      <g transform="translate(0, 6)">
        <circle transform="translate(13, 0)" r="6" fill="#BE98CE"></circle>
        <text transform="translate(13, 3.5)" text-anchor="middle" font-size="10" font-family="Sans-serif" stroke-width="0" fill="#ffffff">3</text>
      </g>
    </g>
    <g transform="translate(130, 5)">
      <g transform="translate(7, 13)">
        <circle r="6" fill="none" stroke-width="2" stroke="#007FFF"></circle>
        <circle r="3" fill="none" stroke-width="2" stroke="#007FFF"></circle>
        <circle r="1.5" fill="#007FFF" stroke="none"></circle>
      </g>
      <g transform="translate(0, 6)">
        <circle transform="translate(13, 0)" r="6" fill="#424242"></circle>
        <text transform="translate(13, 3.5)" text-anchor="middle" font-size="10" font-family="Sans-serif" stroke-width="0" fill="#ffffff">4</text>
      </g>
    </g>


    <g transform="translate(5, 35)">
      <g transform="translate(7, 13)">
        <circle r="6" fill="none" stroke-width="2" stroke="#007FFF"></circle>
        <circle r="3" fill="none" stroke-width="2" stroke="#007FFF"></circle>
        <circle r="1.5" fill="#007FFF" stroke="none"></circle>
      </g>
      <g transform="translate(0, 6)">
        <circle transform="translate(13, 0)" r="6" fill="#EE3424"></circle>
        <text transform="translate(13, 3.5)" text-anchor="middle" font-size="10" font-family="Sans-serif" stroke-width="0" fill="#ffffff">1</text>
      </g>
    </g>
    <g transform="translate(30, 35)">
      <g transform="translate(7, 13)">
        <circle r="6" fill="none" stroke-width="2" stroke="#007FFF"></circle>
        <circle r="3" fill="none" stroke-width="2" stroke="#007FFF"></circle>
        <circle r="1.5" fill="#007FFF" stroke="none"></circle>
      </g>
      <g transform="translate(0, 6)">
        <circle transform="translate(13, 0)" r="6" fill="#F79A92"></circle>
        <text transform="translate(13, 3.5)" text-anchor="middle" font-size="10" font-family="Sans-serif" stroke-width="0" fill="#ffffff">2</text>
      </g>
    </g>
    <g transform="translate(55, 35)">
      <g transform="translate(7, 13)">
        <circle r="6" fill="none" stroke-width="2" stroke="#007FFF"></circle>
        <circle r="3" fill="none" stroke-width="2" stroke="#007FFF"></circle>
        <circle r="1.5" fill="#007FFF" stroke="none"></circle>
      </g>
      <g transform="translate(0, 6)">
        <circle transform="translate(13, 0)" r="6" fill="#FCD6D3"></circle>
        <text transform="translate(13, 3.5)" text-anchor="middle" font-size="10" font-family="Sans-serif" stroke-width="0" fill="#ffffff">3</text>
      </g>
    </g>


    <g transform="translate(5, 65)">
      <g transform="translate(7, 13)">
        <circle r="6" fill="none" stroke-width="2" stroke="#007FFF"></circle>
        <circle r="3" fill="none" stroke-width="2" stroke="#007FFF"></circle>
        <circle r="1.5" fill="#007FFF" stroke="none"></circle>
      </g>
      <g transform="translate(0, 6)">
        <circle transform="translate(9, 0)" r="6" fill="#ff0000"></circle>
        <circle transform="translate(13, 0)" r="6" fill="#33A02C"></circle>
        <text transform="translate(13, 3.5)" text-anchor="middle" font-size="10" font-family="Sans-serif" stroke-width="0" fill="#ffffff">1</text>
      </g>
    </g>
    <g transform="translate(30, 65)">
      <g transform="translate(7, 13)">
        <circle r="6" fill="none" stroke-width="2" stroke="#007FFF"></circle>
        <circle r="3" fill="none" stroke-width="2" stroke="#007FFF"></circle>
        <circle r="1.5" fill="#007FFF" stroke="none"></circle>
      </g>
      <g transform="translate(0, 6)">
        <circle transform="translate(9, 0)" r="6" fill="#ff0000"></circle>
        <circle transform="translate(13, 0)" r="6" fill="#1F78B4"></circle>
        <text transform="translate(13, 3.5)" text-anchor="middle" font-size="10" font-family="Sans-serif" stroke-width="0" fill="#ffffff">2</text>
      </g>
    </g>
    <g transform="translate(55, 65)">
      <g transform="translate(7, 13)">
        <circle r="6" fill="none" stroke-width="2" stroke="#007FFF"></circle>
        <circle r="3" fill="none" stroke-width="2" stroke="#007FFF"></circle>
        <circle r="1.5" fill="#007FFF" stroke="none"></circle>
      </g>
      <g transform="translate(0, 6)">
        <circle transform="translate(9, 0)" r="6" fill="#ff0000"></circle>
        <circle transform="translate(13, 0)" r="6" fill="#80B1D3"></circle>
        <text transform="translate(13, 3.5)" text-anchor="middle" font-size="10" font-family="Sans-serif" stroke-width="0" fill="#ffffff">2</text>
      </g>
    </g>
    <g transform="translate(80, 65)">
      <g transform="translate(7, 13)">
        <circle r="6" fill="none" stroke-width="2" stroke="#007FFF"></circle>
        <circle r="3" fill="none" stroke-width="2" stroke="#007FFF"></circle>
        <circle r="1.5" fill="#007FFF" stroke="none"></circle>
      </g>
      <g transform="translate(0, 6)">
        <circle transform="translate(9, 0)" r="6" fill="#ff0000"></circle>
        <circle transform="translate(13, 0)" r="6" fill="#984EA3"></circle>
        <text transform="translate(13, 3.5)" text-anchor="middle" font-size="10" font-family="Sans-serif" stroke-width="0" fill="#ffffff">3</text>
      </g>
    </g>
    <g transform="translate(105, 65)">
      <g transform="translate(7, 13)">
        <circle r="6" fill="none" stroke-width="2" stroke="#007FFF"></circle>
        <circle r="3" fill="none" stroke-width="2" stroke="#007FFF"></circle>
        <circle r="1.5" fill="#007FFF" stroke="none"></circle>
      </g>
      <g transform="translate(0, 6)">
        <circle transform="translate(9, 0)" r="6" fill="#ff0000"></circle>
        <circle transform="translate(13, 0)" r="6" fill="#BE98CE"></circle>
        <text transform="translate(13, 3.5)" text-anchor="middle" font-size="10" font-family="Sans-serif" stroke-width="0" fill="#ffffff">3</text>
      </g>
    </g>
    <g transform="translate(130, 65)">
      <g transform="translate(7, 13)">
        <circle r="6" fill="none" stroke-width="2" stroke="#007FFF"></circle>
        <circle r="3" fill="none" stroke-width="2" stroke="#007FFF"></circle>
        <circle r="1.5" fill="#007FFF" stroke="none"></circle>
      </g>
      <g transform="translate(0, 6)">
        <circle transform="translate(9, 0)" r="6" fill="#ff0000"></circle>
        <circle transform="translate(13, 0)" r="6" fill="#424242"></circle>
        <text transform="translate(13, 3.5)" text-anchor="middle" font-size="10" font-family="Sans-serif" stroke-width="0" fill="#ffffff">4</text>
      </g>
    </g>
  </g>

  <!--No Oncogenic icons-->
  <g transform="translate(10, 100)">
    <g transform="translate(5, 5)">
      <g transform="translate(7, 13)">
        <circle r="6" fill="none" stroke-width="2" stroke="#696969"></circle>
        <circle r="3" fill="none" stroke-width="2" stroke="#696969"></circle>
        <circle r="1.5" fill="#696969" stroke="none"></circle>
      </g>
      <g transform="translate(0, 6)">
        <circle transform="translate(13, 0)" r="6" fill="#33A02C"></circle>
        <text transform="translate(13, 3.5)" text-anchor="middle" font-size="10" font-family="Sans-serif" stroke-width="0" fill="#ffffff">1</text>
      </g>
    </g>
    <g transform="translate(30, 5)">
      <g transform="translate(7, 13)">
        <circle r="6" fill="none" stroke-width="2" stroke="#696969"></circle>
        <circle r="3" fill="none" stroke-width="2" stroke="#696969"></circle>
        <circle r="1.5" fill="#696969" stroke="none"></circle>
      </g>
      <g transform="translate(0, 6)">
        <circle transform="translate(13, 0)" r="6" fill="#1F78B4"></circle>
        <text transform="translate(13, 3.5)" text-anchor="middle" font-size="10" font-family="Sans-serif" stroke-width="0" fill="#ffffff">2</text>
      </g>
    </g>
    <g transform="translate(55, 5)">
      <g transform="translate(7, 13)">
        <circle r="6" fill="none" stroke-width="2" stroke="#696969"></circle>
        <circle r="3" fill="none" stroke-width="2" stroke="#696969"></circle>
        <circle r="1.5" fill="#696969" stroke="none"></circle>
      </g>
      <g transform="translate(0, 6)">
        <circle transform="translate(13, 0)" r="6" fill="#80B1D3"></circle>
        <text transform="translate(13, 3.5)" text-anchor="middle" font-size="10" font-family="Sans-serif" stroke-width="0" fill="#ffffff">2</text>
      </g>
    </g>
    <g transform="translate(80, 5)">
      <g transform="translate(7, 13)">
        <circle r="6" fill="none" stroke-width="2" stroke="#696969"></circle>
        <circle r="3" fill="none" stroke-width="2" stroke="#696969"></circle>
        <circle r="1.5" fill="#696969" stroke="none"></circle>
      </g>
      <g transform="translate(0, 6)">
        <circle transform="translate(13, 0)" r="6" fill="#984EA3"></circle>
        <text transform="translate(13, 3.5)" text-anchor="middle" font-size="10" font-family="Sans-serif" stroke-width="0" fill="#ffffff">3</text>
      </g>
    </g>
    <g transform="translate(105, 5)">
      <g transform="translate(7, 13)">
        <circle r="6" fill="none" stroke-width="2" stroke="#696969"></circle>
        <circle r="3" fill="none" stroke-width="2" stroke="#696969"></circle>
        <circle r="1.5" fill="#696969" stroke="none"></circle>
      </g>
      <g transform="translate(0, 6)">
        <circle transform="translate(13, 0)" r="6" fill="#BE98CE"></circle>
        <text transform="translate(13, 3.5)" text-anchor="middle" font-size="10" font-family="Sans-serif" stroke-width="0" fill="#ffffff">3</text>
      </g>
    </g>
    <g transform="translate(130, 5)">
      <g transform="translate(7, 13)">
        <circle r="6" fill="none" stroke-width="2" stroke="#696969"></circle>
        <circle r="3" fill="none" stroke-width="2" stroke="#696969"></circle>
        <circle r="1.5" fill="#696969" stroke="none"></circle>
      </g>
      <g transform="translate(0, 6)">
        <circle transform="translate(13, 0)" r="6" fill="#424242"></circle>
        <text transform="translate(13, 3.5)" text-anchor="middle" font-size="10" font-family="Sans-serif" stroke-width="0" fill="#ffffff">4</text>
      </g>
    </g>


    <g transform="translate(5, 35)">
      <g transform="translate(7, 13)">
        <circle r="6" fill="none" stroke-width="2" stroke="#696969"></circle>
        <circle r="3" fill="none" stroke-width="2" stroke="#696969"></circle>
        <circle r="1.5" fill="#696969" stroke="none"></circle>
      </g>
      <g transform="translate(0, 6)">
        <circle transform="translate(13, 0)" r="6" fill="#EE3424"></circle>
        <text transform="translate(13, 3.5)" text-anchor="middle" font-size="10" font-family="Sans-serif" stroke-width="0" fill="#ffffff">1</text>
      </g>
    </g>
    <g transform="translate(30, 35)">
      <g transform="translate(7, 13)">
        <circle r="6" fill="none" stroke-width="2" stroke="#696969"></circle>
        <circle r="3" fill="none" stroke-width="2" stroke="#696969"></circle>
        <circle r="1.5" fill="#696969" stroke="none"></circle>
      </g>
      <g transform="translate(0, 6)">
        <circle transform="translate(13, 0)" r="6" fill="#F79A92"></circle>
        <text transform="translate(13, 3.5)" text-anchor="middle" font-size="10" font-family="Sans-serif" stroke-width="0" fill="#ffffff">2</text>
      </g>
    </g>
    <g transform="translate(55, 35)">
      <g transform="translate(7, 13)">
        <circle r="6" fill="none" stroke-width="2" stroke="#696969"></circle>
        <circle r="3" fill="none" stroke-width="2" stroke="#696969"></circle>
        <circle r="1.5" fill="#696969" stroke="none"></circle>
      </g>
      <g transform="translate(0, 6)">
        <circle transform="translate(13, 0)" r="6" fill="#FCD6D3"></circle>
        <text transform="translate(13, 3.5)" text-anchor="middle" font-size="10" font-family="Sans-serif" stroke-width="0" fill="#ffffff">3</text>
      </g>
    </g>


    <g transform="translate(5, 65)">
      <g transform="translate(7, 13)">
        <circle r="6" fill="none" stroke-width="2" stroke="#696969"></circle>
        <circle r="3" fill="none" stroke-width="2" stroke="#696969"></circle>
        <circle r="1.5" fill="#696969" stroke="none"></circle>
      </g>
      <g transform="translate(0, 6)">
        <circle transform="translate(9, 0)" r="6" fill="#ff0000"></circle>
        <circle transform="translate(13, 0)" r="6" fill="#33A02C"></circle>
        <text transform="translate(13, 3.5)" text-anchor="middle" font-size="10" font-family="Sans-serif" stroke-width="0" fill="#ffffff">1</text>
      </g>
    </g>
    <g transform="translate(30, 65)">
      <g transform="translate(7, 13)">
        <circle r="6" fill="none" stroke-width="2" stroke="#696969"></circle>
        <circle r="3" fill="none" stroke-width="2" stroke="#696969"></circle>
        <circle r="1.5" fill="#696969" stroke="none"></circle>
      </g>
      <g transform="translate(0, 6)">
        <circle transform="translate(9, 0)" r="6" fill="#ff0000"></circle>
        <circle transform="translate(13, 0)" r="6" fill="#1F78B4"></circle>
        <text transform="translate(13, 3.5)" text-anchor="middle" font-size="10" font-family="Sans-serif" stroke-width="0" fill="#ffffff">2</text>
      </g>
    </g>
    <g transform="translate(55, 65)">
      <g transform="translate(7, 13)">
        <circle r="6" fill="none" stroke-width="2" stroke="#696969"></circle>
        <circle r="3" fill="none" stroke-width="2" stroke="#696969"></circle>
        <circle r="1.5" fill="#696969" stroke="none"></circle>
      </g>
      <g transform="translate(0, 6)">
        <circle transform="translate(9, 0)" r="6" fill="#ff0000"></circle>
        <circle transform="translate(13, 0)" r="6" fill="#80B1D3"></circle>
        <text transform="translate(13, 3.5)" text-anchor="middle" font-size="10" font-family="Sans-serif" stroke-width="0" fill="#ffffff">2</text>
      </g>
    </g>
    <g transform="translate(80, 65)">
      <g transform="translate(7, 13)">
        <circle r="6" fill="none" stroke-width="2" stroke="#696969"></circle>
        <circle r="3" fill="none" stroke-width="2" stroke="#696969"></circle>
        <circle r="1.5" fill="#696969" stroke="none"></circle>
      </g>
      <g transform="translate(0, 6)">
        <circle transform="translate(9, 0)" r="6" fill="#ff0000"></circle>
        <circle transform="translate(13, 0)" r="6" fill="#984EA3"></circle>
        <text transform="translate(13, 3.5)" text-anchor="middle" font-size="10" font-family="Sans-serif" stroke-width="0" fill="#ffffff">3</text>
      </g>
    </g>
    <g transform="translate(105, 65)">
      <g transform="translate(7, 13)">
        <circle r="6" fill="none" stroke-width="2" stroke="#696969"></circle>
        <circle r="3" fill="none" stroke-width="2" stroke="#696969"></circle>
        <circle r="1.5" fill="#696969" stroke="none"></circle>
      </g>
      <g transform="translate(0, 6)">
        <circle transform="translate(9, 0)" r="6" fill="#ff0000"></circle>
        <circle transform="translate(13, 0)" r="6" fill="#BE98CE"></circle>
        <text transform="translate(13, 3.5)" text-anchor="middle" font-size="10" font-family="Sans-serif" stroke-width="0" fill="#ffffff">3</text>
      </g>
    </g>
    <g transform="translate(130, 65)">
      <g transform="translate(7, 13)">
        <circle r="6" fill="none" stroke-width="2" stroke="#696969"></circle>
        <circle r="3" fill="none" stroke-width="2" stroke="#696969"></circle>
        <circle r="1.5" fill="#696969" stroke="none"></circle>
      </g>
      <g transform="translate(0, 6)">
        <circle transform="translate(9, 0)" r="6" fill="#ff0000"></circle>
        <circle transform="translate(13, 0)" r="6" fill="#424242"></circle>
        <text transform="translate(13, 3.5)" text-anchor="middle" font-size="10" font-family="Sans-serif" stroke-width="0" fill="#ffffff">4</text>
      </g>
    </g>
  </g>

  <!--VUS icons-->
  <g transform="translate(10, 190)">
    <g transform="translate(5, 5)">
      <g transform="translate(7, 13)">
        <circle r="6" fill="none" stroke-width="2" stroke="#AAA"></circle>
        <circle r="3" fill="none" stroke-width="2" stroke="#AAA"></circle>
        <circle r="1.5" fill="#AAA" stroke="none"></circle>
      </g>
      <g transform="translate(0, 6)">
        <circle transform="translate(13, 0)" r="6" fill="#33A02C"></circle>
        <text transform="translate(13, 3.5)" text-anchor="middle" font-size="10" font-family="Sans-serif" stroke-width="0" fill="#ffffff">1</text>
      </g>
    </g>
    <g transform="translate(30, 5)">
      <g transform="translate(7, 13)">
        <circle r="6" fill="none" stroke-width="2" stroke="#AAA"></circle>
        <circle r="3" fill="none" stroke-width="2" stroke="#AAA"></circle>
        <circle r="1.5" fill="#AAA" stroke="none"></circle>
      </g>
      <g transform="translate(0, 6)">
        <circle transform="translate(13, 0)" r="6" fill="#1F78B4"></circle>
        <text transform="translate(13, 3.5)" text-anchor="middle" font-size="10" font-family="Sans-serif" stroke-width="0" fill="#ffffff">2</text>
      </g>
    </g>
    <g transform="translate(55, 5)">
      <g transform="translate(7, 13)">
        <circle r="6" fill="none" stroke-width="2" stroke="#AAA"></circle>
        <circle r="3" fill="none" stroke-width="2" stroke="#AAA"></circle>
        <circle r="1.5" fill="#AAA" stroke="none"></circle>
      </g>
      <g transform="translate(0, 6)">
        <circle transform="translate(13, 0)" r="6" fill="#80B1D3"></circle>
        <text transform="translate(13, 3.5)" text-anchor="middle" font-size="10" font-family="Sans-serif" stroke-width="0" fill="#ffffff">2</text>
      </g>
    </g>
    <g transform="translate(80, 5)">
      <g transform="translate(7, 13)">
        <circle r="6" fill="none" stroke-width="2" stroke="#AAA"></circle>
        <circle r="3" fill="none" stroke-width="2" stroke="#AAA"></circle>
        <circle r="1.5" fill="#AAA" stroke="none"></circle>
      </g>
      <g transform="translate(0, 6)">
        <circle transform="translate(13, 0)" r="6" fill="#984EA3"></circle>
        <text transform="translate(13, 3.5)" text-anchor="middle" font-size="10" font-family="Sans-serif" stroke-width="0" fill="#ffffff">3</text>
      </g>
    </g>
    <g transform="translate(105, 5)">
      <g transform="translate(7, 13)">
        <circle r="6" fill="none" stroke-width="2" stroke="#AAA"></circle>
        <circle r="3" fill="none" stroke-width="2" stroke="#AAA"></circle>
        <circle r="1.5" fill="#AAA" stroke="none"></circle>
      </g>
      <g transform="translate(0, 6)">
        <circle transform="translate(13, 0)" r="6" fill="#BE98CE"></circle>
        <text transform="translate(13, 3.5)" text-anchor="middle" font-size="10" font-family="Sans-serif" stroke-width="0" fill="#ffffff">3</text>
      </g>
    </g>
    <g transform="translate(130, 5)">
      <g transform="translate(7, 13)">
        <circle r="6" fill="none" stroke-width="2" stroke="#AAA"></circle>
        <circle r="3" fill="none" stroke-width="2" stroke="#AAA"></circle>
        <circle r="1.5" fill="#AAA" stroke="none"></circle>
      </g>
      <g transform="translate(0, 6)">
        <circle transform="translate(13, 0)" r="6" fill="#424242"></circle>
        <text transform="translate(13, 3.5)" text-anchor="middle" font-size="10" font-family="Sans-serif" stroke-width="0" fill="#ffffff">4</text>
      </g>
    </g>


    <g transform="translate(5, 35)">
      <g transform="translate(7, 13)">
        <circle r="6" fill="none" stroke-width="2" stroke="#AAA"></circle>
        <circle r="3" fill="none" stroke-width="2" stroke="#AAA"></circle>
        <circle r="1.5" fill="#AAA" stroke="none"></circle>
      </g>
      <g transform="translate(0, 6)">
        <circle transform="translate(13, 0)" r="6" fill="#EE3424"></circle>
        <text transform="translate(13, 3.5)" text-anchor="middle" font-size="10" font-family="Sans-serif" stroke-width="0" fill="#ffffff">1</text>
      </g>
    </g>
    <g transform="translate(30, 35)">
      <g transform="translate(7, 13)">
        <circle r="6" fill="none" stroke-width="2" stroke="#AAA"></circle>
        <circle r="3" fill="none" stroke-width="2" stroke="#AAA"></circle>
        <circle r="1.5" fill="#AAA" stroke="none"></circle>
      </g>
      <g transform="translate(0, 6)">
        <circle transform="translate(13, 0)" r="6" fill="#F79A92"></circle>
        <text transform="translate(13, 3.5)" text-anchor="middle" font-size="10" font-family="Sans-serif" stroke-width="0" fill="#ffffff">2</text>
      </g>
    </g>
    <g transform="translate(55, 35)">
      <g transform="translate(7, 13)">
        <circle r="6" fill="none" stroke-width="2" stroke="#AAA"></circle>
        <circle r="3" fill="none" stroke-width="2" stroke="#AAA"></circle>
        <circle r="1.5" fill="#AAA" stroke="none"></circle>
      </g>
      <g transform="translate(0, 6)">
        <circle transform="translate(13, 0)" r="6" fill="#FCD6D3"></circle>
        <text transform="translate(13, 3.5)" text-anchor="middle" font-size="10" font-family="Sans-serif" stroke-width="0" fill="#ffffff">3</text>
      </g>
    </g>


    <g transform="translate(5, 65)">
      <g transform="translate(7, 13)">
        <circle r="6" fill="none" stroke-width="2" stroke="#AAA"></circle>
        <circle r="3" fill="none" stroke-width="2" stroke="#AAA"></circle>
        <circle r="1.5" fill="#AAA" stroke="none"></circle>
      </g>
      <g transform="translate(0, 6)">
        <circle transform="translate(9, 0)" r="6" fill="#ff0000"></circle>
        <circle transform="translate(13, 0)" r="6" fill="#33A02C"></circle>
        <text transform="translate(13, 3.5)" text-anchor="middle" font-size="10" font-family="Sans-serif" stroke-width="0" fill="#ffffff">1</text>
      </g>
    </g>
    <g transform="translate(30, 65)">
      <g transform="translate(7, 13)">
        <circle r="6" fill="none" stroke-width="2" stroke="#AAA"></circle>
        <circle r="3" fill="none" stroke-width="2" stroke="#AAA"></circle>
        <circle r="1.5" fill="#AAA" stroke="none"></circle>
      </g>
      <g transform="translate(0, 6)">
        <circle transform="translate(9, 0)" r="6" fill="#ff0000"></circle>
        <circle transform="translate(13, 0)" r="6" fill="#1F78B4"></circle>
        <text transform="translate(13, 3.5)" text-anchor="middle" font-size="10" font-family="Sans-serif" stroke-width="0" fill="#ffffff">2</text>
      </g>
    </g>
    <g transform="translate(55, 65)">
      <g transform="translate(7, 13)">
        <circle r="6" fill="none" stroke-width="2" stroke="#AAA"></circle>
        <circle r="3" fill="none" stroke-width="2" stroke="#AAA"></circle>
        <circle r="1.5" fill="#AAA" stroke="none"></circle>
      </g>
      <g transform="translate(0, 6)">
        <circle transform="translate(9, 0)" r="6" fill="#ff0000"></circle>
        <circle transform="translate(13, 0)" r="6" fill="#80B1D3"></circle>
        <text transform="translate(13, 3.5)" text-anchor="middle" font-size="10" font-family="Sans-serif" stroke-width="0" fill="#ffffff">2</text>
      </g>
    </g>
    <g transform="translate(80, 65)">
      <g transform="translate(7, 13)">
        <circle r="6" fill="none" stroke-width="2" stroke="#AAA"></circle>
        <circle r="3" fill="none" stroke-width="2" stroke="#AAA"></circle>
        <circle r="1.5" fill="#AAA" stroke="none"></circle>
      </g>
      <g transform="translate(0, 6)">
        <circle transform="translate(9, 0)" r="6" fill="#ff0000"></circle>
        <circle transform="translate(13, 0)" r="6" fill="#984EA3"></circle>
        <text transform="translate(13, 3.5)" text-anchor="middle" font-size="10" font-family="Sans-serif" stroke-width="0" fill="#ffffff">3</text>
      </g>
    </g>
    <g transform="translate(105, 65)">
      <g transform="translate(7, 13)">
        <circle r="6" fill="none" stroke-width="2" stroke="#AAA"></circle>
        <circle r="3" fill="none" stroke-width="2" stroke="#AAA"></circle>
        <circle r="1.5" fill="#AAA" stroke="none"></circle>
      </g>
      <g transform="translate(0, 6)">
        <circle transform="translate(9, 0)" r="6" fill="#ff0000"></circle>
        <circle transform="translate(13, 0)" r="6" fill="#BE98CE"></circle>
        <text transform="translate(13, 3.5)" text-anchor="middle" font-size="10" font-family="Sans-serif" stroke-width="0" fill="#ffffff">3</text>
      </g>
    </g>
    <g transform="translate(130, 65)">
      <g transform="translate(7, 13)">
        <circle r="6" fill="none" stroke-width="2" stroke="#AAA"></circle>
        <circle r="3" fill="none" stroke-width="2" stroke="#AAA"></circle>
        <circle r="1.5" fill="#AAA" stroke="none"></circle>
      </g>
      <g transform="translate(0, 6)">
        <circle transform="translate(9, 0)" r="6" fill="#ff0000"></circle>
        <circle transform="translate(13, 0)" r="6" fill="#424242"></circle>
        <text transform="translate(13, 3.5)" text-anchor="middle" font-size="10" font-family="Sans-serif" stroke-width="0" fill="#ffffff">4</text>
      </g>
    </g>
  </g>

  <!--Unknown icons-->
  <g transform="translate(10, 280)">
    <g transform="translate(5, 5)">
      <g transform="translate(7, 13)">
        <circle r="6" fill="none" stroke-width="2" stroke="#CCC"></circle>
      </g>
      <g transform="translate(0, 6)">
        <circle transform="translate(13, 0)" r="6" fill="#33A02C"></circle>
        <text transform="translate(13, 3.5)" text-anchor="middle" font-size="10" font-family="Sans-serif" stroke-width="0" fill="#ffffff">1</text>
      </g>
    </g>
    <g transform="translate(30, 5)">
      <g transform="translate(7, 13)">
        <circle r="6" fill="none" stroke-width="2" stroke="#CCC"></circle>
      </g>
      <g transform="translate(0, 6)">
        <circle transform="translate(13, 0)" r="6" fill="#1F78B4"></circle>
        <text transform="translate(13, 3.5)" text-anchor="middle" font-size="10" font-family="Sans-serif" stroke-width="0" fill="#ffffff">2</text>
      </g>
    </g>
    <g transform="translate(55, 5)">
      <g transform="translate(7, 13)">
        <circle r="6" fill="none" stroke-width="2" stroke="#CCC"></circle>
      </g>
      <g transform="translate(0, 6)">
        <circle transform="translate(13, 0)" r="6" fill="#80B1D3"></circle>
        <text transform="translate(13, 3.5)" text-anchor="middle" font-size="10" font-family="Sans-serif" stroke-width="0" fill="#ffffff">2</text>
      </g>
    </g>
    <g transform="translate(80, 5)">
      <g transform="translate(7, 13)">
        <circle r="6" fill="none" stroke-width="2" stroke="#CCC"></circle>
      </g>
      <g transform="translate(0, 6)">
        <circle transform="translate(13, 0)" r="6" fill="#984EA3"></circle>
        <text transform="translate(13, 3.5)" text-anchor="middle" font-size="10" font-family="Sans-serif" stroke-width="0" fill="#ffffff">3</text>
      </g>
    </g>
    <g transform="translate(105, 5)">
      <g transform="translate(7, 13)">
        <circle r="6" fill="none" stroke-width="2" stroke="#CCC"></circle>
      </g>
      <g transform="translate(0, 6)">
        <circle transform="translate(13, 0)" r="6" fill="#BE98CE"></circle>
        <text transform="translate(13, 3.5)" text-anchor="middle" font-size="10" font-family="Sans-serif" stroke-width="0" fill="#ffffff">3</text>
      </g>
    </g>
    <g transform="translate(130, 5)">
      <g transform="translate(7, 13)">
        <circle r="6" fill="none" stroke-width="2" stroke="#CCC"></circle>
      </g>
      <g transform="translate(0, 6)">
        <circle transform="translate(13, 0)" r="6" fill="#424242"></circle>
        <text transform="translate(13, 3.5)" text-anchor="middle" font-size="10" font-family="Sans-serif" stroke-width="0" fill="#ffffff">4</text>
      </g>
    </g>


    <g transform="translate(5, 35)">
      <g transform="translate(7, 13)">
        <circle r="6" fill="none" stroke-width="2" stroke="#CCC"></circle>
      </g>
      <g transform="translate(0, 6)">
        <circle transform="translate(13, 0)" r="6" fill="#EE3424"></circle>
        <text transform="translate(13, 3.5)" text-anchor="middle" font-size="10" font-family="Sans-serif" stroke-width="0" fill="#ffffff">1</text>
      </g>
    </g>
    <g transform="translate(30, 35)">
      <g transform="translate(7, 13)">
        <circle r="6" fill="none" stroke-width="2" stroke="#CCC"></circle>
      </g>
      <g transform="translate(0, 6)">
        <circle transform="translate(13, 0)" r="6" fill="#F79A92"></circle>
        <text transform="translate(13, 3.5)" text-anchor="middle" font-size="10" font-family="Sans-serif" stroke-width="0" fill="#ffffff">2</text>
      </g>
    </g>
    <g transform="translate(55, 35)">
      <g transform="translate(7, 13)">
        <circle r="6" fill="none" stroke-width="2" stroke="#CCC"></circle>
      </g>
      <g transform="translate(0, 6)">
        <circle transform="translate(13, 0)" r="6" fill="#FCD6D3"></circle>
        <text transform="translate(13, 3.5)" text-anchor="middle" font-size="10" font-family="Sans-serif" stroke-width="0" fill="#ffffff">3</text>
      </g>
    </g>


    <g transform="translate(5, 65)">
      <g transform="translate(7, 13)">
        <circle r="6" fill="none" stroke-width="2" stroke="#CCC"></circle>
      </g>
      <g transform="translate(0, 6)">
        <circle transform="translate(9, 0)" r="6" fill="#ff0000"></circle>
        <circle transform="translate(13, 0)" r="6" fill="#33A02C"></circle>
        <text transform="translate(13, 3.5)" text-anchor="middle" font-size="10" font-family="Sans-serif" stroke-width="0" fill="#ffffff">1</text>
      </g>
    </g>
    <g transform="translate(30, 65)">
      <g transform="translate(7, 13)">
        <circle r="6" fill="none" stroke-width="2" stroke="#CCC"></circle>
      </g>
      <g transform="translate(0, 6)">
        <circle transform="translate(9, 0)" r="6" fill="#ff0000"></circle>
        <circle transform="translate(13, 0)" r="6" fill="#1F78B4"></circle>
        <text transform="translate(13, 3.5)" text-anchor="middle" font-size="10" font-family="Sans-serif" stroke-width="0" fill="#ffffff">2</text>
      </g>
    </g>
    <g transform="translate(55, 65)">
      <g transform="translate(7, 13)">
        <circle r="6" fill="none" stroke-width="2" stroke="#CCC"></circle>
      </g>
      <g transform="translate(0, 6)">
        <circle transform="translate(9, 0)" r="6" fill="#ff0000"></circle>
        <circle transform="translate(13, 0)" r="6" fill="#80B1D3"></circle>
        <text transform="translate(13, 3.5)" text-anchor="middle" font-size="10" font-family="Sans-serif" stroke-width="0" fill="#ffffff">2</text>
      </g>
    </g>
    <g transform="translate(80, 65)">
      <g transform="translate(7, 13)">
        <circle r="6" fill="none" stroke-width="2" stroke="#CCC"></circle>
      </g>
      <g transform="translate(0, 6)">
        <circle transform="translate(9, 0)" r="6" fill="#ff0000"></circle>
        <circle transform="translate(13, 0)" r="6" fill="#984EA3"></circle>
        <text transform="translate(13, 3.5)" text-anchor="middle" font-size="10" font-family="Sans-serif" stroke-width="0" fill="#ffffff">3</text>
      </g>
    </g>
    <g transform="translate(105, 65)">
      <g transform="translate(7, 13)">
        <circle r="6" fill="none" stroke-width="2" stroke="#CCC"></circle>
      </g>
      <g transform="translate(0, 6)">
        <circle transform="translate(9, 0)" r="6" fill="#ff0000"></circle>
        <circle transform="translate(13, 0)" r="6" fill="#BE98CE"></circle>
        <text transform="translate(13, 3.5)" text-anchor="middle" font-size="10" font-family="Sans-serif" stroke-width="0" fill="#ffffff">3</text>
      </g>
    </g>
    <g transform="translate(130, 65)">
      <g transform="translate(7, 13)">
        <circle r="6" fill="none" stroke-width="2" stroke="#CCC"></circle>
      </g>
      <g transform="translate(0, 6)">
        <circle transform="translate(9, 0)" r="6" fill="#ff0000"></circle>
        <circle transform="translate(13, 0)" r="6" fill="#424242"></circle>
        <text transform="translate(13, 3.5)" text-anchor="middle" font-size="10" font-family="Sans-serif" stroke-width="0" fill="#ffffff">4</text>
      </g>
    </g>
  </g>

  <!--No level icons-->
  <g transform="translate(10, 370)">
    <g transform="translate(5, 5)">
      <g transform="translate(7, 13)">
        <circle r="6" fill="none" stroke-width="2" stroke="#007FFF"></circle>
        <circle r="3" fill="none" stroke-width="2" stroke="#007FFF"></circle>
        <circle r="1.5" fill="#007FFF" stroke="none"></circle>
      </g>
    </g>
    <g transform="translate(30, 5)">
      <g transform="translate(7, 13)">
        <circle r="6" fill="none" stroke-width="2" stroke="#696969"></circle>
        <circle r="3" fill="none" stroke-width="2" stroke="#696969"></circle>
        <circle r="1.5" fill="#696969" stroke="none"></circle>
      </g>
    </g>
    <g transform="translate(55, 5)">
      <g transform="translate(7, 13)">
        <circle r="6" fill="none" stroke-width="2" stroke="#AAA"></circle>
        <circle r="3" fill="none" stroke-width="2" stroke="#AAA"></circle>
        <circle r="1.5" fill="#AAA" stroke="none"></circle>
      </g>
    </g>
    <g transform="translate(80, 5)">
      <g transform="translate(7, 13)">
        <circle r="6" fill="none" stroke-width="2" stroke="#696969"></circle>
      </g>
    </g>
    <g transform="translate(105, 5)">
      <g transform="translate(7, 13)">
        <circle r="6" fill="none" stroke-width="2" stroke="#CCC"></circle>
      </g>
    </g>
  </g>
</svg>