<svg width="138" height="26" fill="none" xmlns="http://www.w3.org/2000/svg"><path d="M13.323 26c7.757 0 13.395-5.854 13.395-13v-.072C26.718 5.782 21.152 0 13.395 0 5.638 0 0 5.854 0 13v.072C0 20.218 5.566 26 13.323 26zm.072-5.1c-4.453 0-7.613-3.59-7.613-7.9v-.072c0-4.31 3.088-7.829 7.541-7.829S20.936 8.691 20.936 13v.072c0 4.31-3.088 7.829-7.541 7.829zm16.577 4.67h5.459V14.83c0-2.585 1.328-3.914 3.411-3.914s3.304 1.329 3.304 3.915v10.737h5.459v-12.46c0-4.417-2.406-7.147-6.536-7.147-2.765 0-4.381 1.473-5.638 3.089V6.32h-5.459v19.25zm30.383.43c3.843 0 5.997-1.472 7.865-3.52l-3.196-3.231c-1.33 1.257-2.586 2.047-4.418 2.047-2.98 0-4.884-2.37-4.884-5.315v-.072c0-2.837 1.94-5.243 4.669-5.243 1.94 0 3.16.826 4.381 2.118l3.34-3.59c-1.796-2.012-4.058-3.233-7.685-3.233-5.89 0-10.091 4.525-10.091 10.02v.071c0 5.495 4.237 9.948 10.02 9.948zm31.003-.43h5.53v-7.686l2.91-3.017 7.792 10.702h6.644l-10.702-14.472L113.803.43h-6.787L96.889 11.42V.43h-5.53v25.14zm24.824 0h11.958c5.674 0 9.409-2.3 9.409-6.896v-.072c0-3.376-1.795-5.063-4.704-6.177 1.795-1.005 3.304-2.585 3.304-5.422V6.93c0-1.724-.575-3.124-1.724-4.274C132.989 1.22 130.726.43 127.853.43h-11.671v25.138zm14.472-17.634c0 1.868-1.544 2.658-3.986 2.658h-5.099V5.279h5.458c2.334 0 3.627.934 3.627 2.586v.071zm1.401 9.984v.072c0 1.867-1.473 2.729-3.915 2.729h-6.571v-5.53h6.392c2.837 0 4.094 1.041 4.094 2.729z" fill="#222"/><path fill-rule="evenodd" clip-rule="evenodd" d="M78.803 23.5a7.5 7.5 0 100-15 7.5 7.5 0 000 15zm0 2.5c5.523 0 10-4.477 10-10s-4.477-10-10-10-10 4.477-10 10 4.477 10 10 10z" fill="#222"/><path fill-rule="evenodd" clip-rule="evenodd" d="M78.803 19.5a3.5 3.5 0 100-7 3.5 3.5 0 000 7zm0 2.5a6 6 0 100-12 6 6 0 000 12z" fill="#222"/><path fill-rule="evenodd" clip-rule="evenodd" d="M78.803 18a2 2 0 100-4 2 2 0 000 4z" fill="#222"/></svg>