<svg xmlns="http://www.w3.org/2000/svg" width="1112" height="120"><g clip-path="url(#a)"><path d="M148.378 75.2h-14.734v-2.168c5.23-.882 5.994-2.287 5.994-7.688v-22.83c0-2.175-1.053-3.227-5.994-3.403v-2.527h13.972l10.681 29.46h.465l10.632-29.46h13.964v2.526c-4.934.177-6.163.706-6.163 2.527v28.515c0 1.823 1.228 2.351 6.163 2.528v2.52h-17.196v-2.52c4.581-.177 5.103-.586 5.103-2.528V41.46h-.402L158.297 75.2h-2.35l-12.73-33.74h-.416v23.885c0 5.4.416 6.693 5.577 7.688v2.168zm35.869-12.59h-.007v-.787h.007c.148-7.866 5.21-13.842 12.735-13.842 8.324 0 11.437 6.799 10.97 13.435H189.93v.176c0 6.163 3 10.852 8.747 10.852 3.296 0 5.987-1.999 8.337-4.865l1.462 1.462c-2.168 3.642-5.578 6.811-11.494 6.811-8.07 0-12.568-5.71-12.734-13.241h-.001zm5.746-3.306l12.321-.295c.244-4.871-1.583-8.74-5.754-8.74-3.573 0-6.043 2.52-6.567 9.035zm33.248 13.436c-2.931-.056-3.347-.643-3.347-2.055v-16.49c1.701-1.054 3.402-2.169 6.043-2.169 3.403 0 5.281 1.413 5.281 6.277v12.382c0 1.412-.466 1.998-3.397 2.055v2.463h12.616V72.74c-3.409-.056-3.932-.643-3.932-2.055v-14.19c0-.65-.064-1.235-.12-1.772 2.351-1.644 4.335-2.697 6.396-2.697 3.409 0 5.041 1.413 5.041 6.277v12.382c0 1.412-.454 1.998-3.397 2.055v2.463h12.963V72.74c-3.397-.056-4.279-.643-4.279-2.055v-14.55c0-5.28-2.527-8.154-6.573-8.154-3.692 0-7.101 1.878-10.567 4.87-.932-3.049-3.276-4.87-6.277-4.87-3.869 0-6.805 2.054-9.911 4.223v-4.046l-9.452.234v2.463c3.401.056 4.279 1.115 4.279 2.873v16.957c0 1.412-.878 1.998-4.279 2.055v2.463h12.911V72.74h.001zm35.249-10.738c0-8.154 5.281-14.02 13.322-14.02 8.274 0 13.265 5.633 13.265 13.787 0 8.21-5.287 14.084-13.265 14.084-8.393 0-13.322-5.634-13.322-13.85v-.001zm5.873-.114c0 7.864 2.993 11.444 7.682 11.444 4.575 0 7.164-3.58 7.164-11.443 0-7.864-2.993-11.387-7.694-11.387-4.63 0-7.152 3.523-7.152 11.386zm39.757-13.907c-3.057 0-5.578 2.168-7.626 4.752v-4.575l-9.451.234v2.463c3.401.056 4.279 1.115 4.279 2.873v16.957c0 1.412-.878 1.998-4.279 2.055v2.463h14.494V72.74c-3.877-.056-4.935-.643-4.935-2.055V54.9c1.241-1.525 2.936-3.283 5.583-3.17-.064.36-.12.713-.12 1.003 0 2.11 1.589 3.112 3.346 3.112 1.821 0 3.163-1.594 3.163-3.466 0-2.344-1.462-4.398-4.454-4.398zm20.403 24.758c-3.466-.056-4.29-.642-4.29-2.054V48.158l-9.504.234v2.463c3.397.056 4.223 1.115 4.223 2.873v16.957c0 1.412-.877 1.998-4.285 2.055v2.463h13.856V72.74zm-7.051-30.977c2.117 0 3.523-1.475 3.523-3.643 0-2.173-1.406-3.636-3.523-3.636-2.105 0-3.516 1.582-3.516 3.756 0 2.168 1.412 3.523 3.516 3.523zm34.911 30.625l.233 1.94c-2.112.763-3.403 1.11-5.105 1.11-3.112 0-3.995-1.172-4.285-4.513h-.403c-2.35 2.642-5.173 4.639-8.633 4.639-4.928 0-7.279-2.823-7.279-6.163 0-2.35 1.116-4.757 3.581-6.107 4.461-2.463 11.443-3.465 12.331-4.165v-1.637c0-5.232-1.474-7.053-5.287-7.053-1.884 0-2.936.417-3.938 1.292.473 1.003.655 1.942.655 2.766 0 1.753-1.121 3.22-3.113 3.22-2.054 0-3.232-1.518-3.232-3.22 0-3.881 4.82-6.515 10.448-6.515 6.099 0 9.742 2.754 9.742 8.388v12.798c0 2.873.409 3.692 4.285 3.22zm-9.56-10.971c-8.344 1.877-9.981 3.113-9.981 6.636 0 2.104 1.109 3.988 4.165 3.988 2.351 0 4.512-1.764 5.816-3.586v-7.038zm15.854-21.538v30.807c0 1.412-.938 1.998-4.341 2.055v2.463H368.3V72.74c-3.461-.056-4.342-.643-4.342-2.055V34.307l-9.798.234v2.463c3.401.057 4.517 1.115 4.517 2.873zm28.296 34.513c2.231.932 5.225 1.752 8.395 1.752 9.748 0 13.327-6.926 13.327-12.73 0-7.277-5.81-9.162-11.161-10.97-6.269-2.117-9.269-3.763-9.269-7.574 0-3.876 2.937-6.22 6.699-6.22 4.574 0 7.688 2.696 9.622 8.034h2.288V35.36h-1.638l-2.004 1.77c-1.879-.712-3.927-1.475-7.215-1.475-7.278 0-13.202 4.456-13.202 11.797 0 7.215 5.86 8.98 11.204 10.852 7.108 2.526 9.862 4.234 9.862 8.336 0 3.05-2.112 6.51-7.569 6.51-4.876 0-8.809-2.578-11.916-9.39h-2.287v12.622h1.765l3.099-1.99zm28.105-34.515v30.81c0 1.412-.938 1.998-4.341 2.055v2.463h13.969v-2.463c-3.465-.057-4.347-.643-4.347-2.055V34.307l-9.805.234v2.463c3.409.057 4.524 1.115 4.524 2.873zm23.978 35.977c-8.394 0-13.315-5.634-13.315-13.85 0-8.155 5.273-14.022 13.314-14.022 8.268 0 13.271 5.634 13.271 13.788 0 8.21-5.28 14.084-13.271 14.084h.001zm.239-2.521c4.574 0 7.158-3.58 7.158-11.443 0-7.864-2.992-11.387-7.694-11.387-4.638 0-7.152 3.523-7.152 11.386 0 7.864 2.993 11.444 7.688 11.444zm41.388-.946l.246 1.942c-2.13.762-3.41 1.109-5.117 1.109-3.113 0-3.989-1.172-4.279-4.513h-.41c-2.344 2.642-5.16 4.639-8.626 4.639-4.928 0-7.278-2.823-7.278-6.163 0-2.35 1.121-4.757 3.585-6.107 4.455-2.463 11.443-3.465 12.32-4.165v-1.637c0-5.232-1.462-7.053-5.288-7.053-1.871 0-2.924.417-3.932 1.292.473 1.003.65 1.942.65 2.766 0 1.753-1.115 3.22-3.107 3.22-2.06 0-3.233-1.518-3.233-3.22 0-3.881 4.815-6.515 10.449-6.515 6.092 0 9.734 2.754 9.734 8.388v12.798c0 2.873.424 3.692 4.286 3.22zm-9.56-10.97c-8.33 1.877-9.975 3.113-9.975 6.636 0 2.104 1.109 3.988 4.166 3.988 2.35 0 4.518-1.764 5.809-3.586v-7.038zm38.232 9.27v-14.55c0-5.281-2.761-8.155-6.806-8.155-3.875 0-7.335 2.054-10.442 4.223v-4.046l-9.465.234v2.463c3.416.056 4.292 1.115 4.292 2.873v16.957c0 1.412-.876 1.998-4.292 2.055v2.463h13.271V72.74c-2.936-.056-3.699-.643-3.699-2.055v-16.49c1.702-1.054 3.996-2.169 6.636-2.169 3.402 0 5.23 1.35 5.23 6.22v12.44c0 1.41-.762 1.997-3.762 2.054v2.463h13.321V72.74c-3.465-.056-4.284-.643-4.284-2.055zm46.601-2.932l-11.395-15.496 7.815-7.625c4.215-4.115 6.037-5.224 10.316-5.873v-2.173h-15.195v2.287c4.519.536 4.695 2.117 1.758 5.047L536.64 56.663V41.64c0-1.935.353-2.35 5.576-2.527v-2.527h-17.657v2.527c4.922.176 6.156.706 6.156 2.527v28.515c0 1.82-1.235 2.35-6.156 2.526v2.521h16.958v-2.52c-4.524-.176-4.877-.585-4.877-2.527v-10.21l4.108-3.995 9.1 12.685c1.991 2.697 1.108 3.693-3.057 4.222v2.344h17.077v-2.4c-4.801-.762-5.696-2.117-7.914-5.047h.002zm66.444 4.689c-2.47 0-3.523-1.348-3.523-4.568v-16.61h8.33V48.39h-8.33v-9.806l-5.161 2.118v7.688h-14.357v-9.806l-5.161 2.118v7.568l-4.934 1.053v1.94h4.808v17.253c0 4.576 2.237 7.335 6.698 7.335 3.75 0 5.685-1.348 7.858-5.28l-1.582-1.235c-1.348 1.883-2.526 3.107-4.172 3.107-2.469 0-3.515-1.35-3.515-4.569v-16.61h14.231v17.252c0 4.576 2.237 7.335 6.693 7.335 3.755 0 5.696-1.348 7.864-5.28l-1.589-1.235c-1.341 1.883-2.52 3.107-4.158 3.107v-.001zm-35.474-4.864l1.468 1.462c-2.168 3.642-5.589 6.811-11.506 6.811-8.055 0-12.553-5.699-12.727-13.218h-.01v-.787h.008c.139-7.877 5.197-13.866 12.73-13.866 8.335 0 11.443 6.799 10.976 13.435h-18.023v.176c0 6.163 2.994 10.852 8.747 10.852 3.283 0 5.986-1.999 8.337-4.865zm-17.02-8.274l12.319-.296c.24-4.871-1.575-8.74-5.754-8.74-3.572 0-6.036 2.52-6.565 9.035zm82.383 8.274l1.467 1.462c-2.168 3.642-5.584 6.811-11.507 6.811-8.217 0-12.735-5.929-12.735-13.674 0-8.04 5.104-14.197 12.735-14.197 8.338 0 11.45 6.799 10.984 13.435h-18.022v.176c0 6.163 2.992 10.852 8.74 10.852 3.29 0 5.987-1.999 8.337-4.865h.001zm-17.022-8.274l12.321-.296c.238-4.871-1.583-8.74-5.748-8.74-3.58 0-6.049 2.52-6.573 9.035zm37.406-11.324c-3.05 0-5.564 2.168-7.619 4.752v-4.575l-9.458.234v2.463c3.409.056 4.285 1.115 4.285 2.873v16.957c0 1.412-.876 1.998-4.285 2.055v2.463h14.505V72.74c-3.881-.056-4.927-.643-4.927-2.055V54.9c1.223-1.525 2.924-3.283 5.571-3.17-.057.36-.12.713-.12 1.003 0 2.11 1.589 3.112 3.346 3.112 1.815 0 3.17-1.594 3.17-3.466 0-2.344-1.469-4.398-4.468-4.398zm16.119 22.704V48.158l-9.509.234v2.463c3.409.056 4.234 1.115 4.234 2.873v16.957c0 1.412-.887 1.998-4.284 2.055v2.463h13.844V72.74c-3.466-.056-4.285-.643-4.285-2.055zm-2.754-28.923c2.111 0 3.523-1.475 3.523-3.643 0-2.173-1.412-3.636-3.523-3.636-2.104 0-3.523 1.582-3.523 3.756 0 2.168 1.419 3.523 3.523 3.523zm35.698 28.923v-14.55c0-5.28-2.76-8.154-6.805-8.154-3.87 0-7.329 2.054-10.443 4.223v-4.046l-9.451.234v2.463c3.408.056 4.284 1.115 4.284 2.873v16.957c0 1.412-.876 1.998-4.284 2.055v2.463h13.265V72.74c-2.937-.056-3.694-.643-3.694-2.055v-16.49c1.69-1.054 3.983-2.169 6.624-2.169 3.401 0 5.23 1.35 5.23 6.22v12.44c0 1.41-.769 1.997-3.756 2.054v2.463h13.321V72.74c-3.465-.056-4.291-.643-4.291-2.055zm23.662-21.065c2.533 1.468 4.234 3.995 4.234 7.398 0 5.69-4.581 9.212-10.568 9.212-1.234 0-2.407-.119-3.521-.41-1.526.757-2.351 1.583-2.351 2.578 0 1.172.825 2.35 5.57 2.35h2.704c7.744 0 11.204 1.878 11.204 6.806 0 4.694-5.63 9.685-15.013 9.685-7.694 0-10.975-3-10.975-6.459 0-2.697 2.585-5.16 7.166-5.923v-.416c-3.466-.819-4.701-2.23-4.701-4.581 0-1.759 1.575-3.516 4.114-4.808-2.879-1.342-4.827-3.926-4.827-7.808 0-5.627 4.581-9.263 10.63-9.263 1.639 0 3.29.29 4.696.819 1.291-2.413 3.699-4.574 6.686-4.574 2.06 0 3.232 1.228 3.232 2.986 0 1.526-.939 2.59-2.287 2.59-1.532 0-2.597-1.002-2.597-2.76-1.172.41-2.628 1.462-3.396 2.578zm-9.087 25.88c-3.119.592-5.167 2.23-5.167 4.688 0 2.766 2.992 4.587 8.853 4.587 4.991 0 8.337-2.407 8.337-5.286 0-2.408-1.348-3.99-7.221-3.99h-4.802zm7.795-18.37c0-4.454-2.225-6.98-5.28-6.98-2.937 0-4.929 1.58-4.929 6.98 0 5.408 2.345 6.926 5.338 6.926 2.873 0 4.871-1.878 4.871-6.925zm42.58 15.261c-6.983.001-13.738-5.456-13.738-16.257 0-11.393 5.931-17.492 12.673-17.492 5.753 0 9.276 3.875 11.859 10.504h1.935V35.824h-2.168l-1.771 2.464c-2.161-1.286-5.218-2.64-9.263-2.64-11.097 0-19.957 8.916-19.957 20.719 0 11.916 7.865 19.78 18.899 19.78 8.57 0 13.617-5.52 16.018-11.098l-2.344-1.171c-2.407 4.928-5.514 8.513-12.143 8.513zm42.774 0l.233 1.935c-2.111.762-3.402 1.115-5.11 1.115-3.1 0-3.983-1.178-4.285-4.525h-.403c-2.345 2.635-5.167 4.638-8.627 4.638-4.934 0-7.279-2.817-7.279-6.163 0-2.343 1.116-4.75 3.579-6.1 4.463-2.463 11.444-3.465 12.327-4.164v-1.645c0-5.225-1.468-7.039-5.281-7.039-1.878 0-2.936.41-3.932 1.285.466 1.002.643 1.935.643 2.755 0 1.764-1.116 3.232-3.107 3.232-2.054 0-3.233-1.525-3.233-3.232 0-3.876 4.809-6.51 10.442-6.51 6.112 0 9.749 2.76 9.749 8.393v12.793c0 2.88.409 3.699 4.284 3.232zm-9.565-10.977c-8.331 1.877-9.981 3.106-9.981 6.629 0 2.111 1.115 3.996 4.165 3.996 2.35 0 4.524-1.765 5.816-3.587v-7.038zm38.24 9.263V56.134c0-5.281-2.772-8.16-6.824-8.16-3.87 0-7.329 2.053-10.442 4.22v-4.045l-9.452.24v2.464c3.402.056 4.291 1.109 4.291 2.873v16.95c0 1.419-.889 1.999-4.291 2.062v2.463h13.265v-2.463c-2.937-.063-3.699-.643-3.699-2.061v-16.49c1.7-1.047 3.995-2.168 6.634-2.168 3.403 0 5.231 1.354 5.231 6.225v12.433c0 1.418-.768 1.998-3.763 2.061v2.463h13.316v-2.463c-3.453-.063-4.266-.643-4.266-2.061zm19.811 1.657c-5.684 0-8.804-4.468-8.804-11.45 0-7.454 3.226-10.39 7.625-10.39 2.237 0 4.109.946 4.821 1.883-.825.467-1.884 1.582-1.884 3.164 0 1.77 1.297 2.992 3.295 2.992 1.985 0 3.353-1.757 3.353-3.931 0-3.34-3.592-6.628-9.699-6.628-7.328 0-13.138 6.049-13.138 14.202 0 7.802 4.865 13.675 12.552 13.675 5.64 0 8.685-2.59 11.148-6.163l-1.456-1.475c-2.003 2.294-4.587 4.122-7.813 4.122zm34.329-4.757l1.462 1.462c-2.168 3.636-5.577 6.811-11.506 6.811-8.211 0-12.73-5.929-12.73-13.674 0-8.04 5.104-14.203 12.73-14.203 8.336 0 11.45 6.805 10.977 13.442h-18.017v.17c0 6.161 2.994 10.863 8.747 10.863 3.289 0 5.986-1.999 8.337-4.871zm-17.026-8.28l12.319-.29c.239-4.871-1.576-8.747-5.741-8.747-3.585 0-6.049 2.527-6.579 9.036h.001zm37.414-11.323c-3.062 0-5.577 2.166-7.632 4.756v-4.58l-9.452.24v2.464c3.403.056 4.286 1.109 4.286 2.873v16.95c0 1.419-.883 1.999-4.286 2.062v2.463h14.494v-2.463c-3.869-.063-4.922-.643-4.922-2.061v-15.78c1.223-1.524 2.931-3.288 5.572-3.169-.058.36-.114.706-.114 1.002 0 2.111 1.576 3.107 3.34 3.107 1.821 0 3.169-1.587 3.169-3.46 0-2.35-1.468-4.404-4.455-4.404zm36.221 24.417c-6.989 0-13.737-5.456-13.737-16.258 0-11.393 5.923-17.492 12.671-17.492 5.748 0 9.27 3.875 11.854 10.504h1.94V35.824h-2.173l-1.759 2.464c-2.167-1.286-5.229-2.64-9.269-2.64-11.096 0-19.962 8.916-19.962 20.719 0 11.916 7.864 19.78 18.897 19.78 8.57 0 13.617-5.52 16.025-11.098l-2.344-1.171c-2.414 4.928-5.514 8.513-12.143 8.513zm40.296-4.815l1.46 1.462c-2.18 3.637-5.57 6.813-11.502 6.813-8.217 0-12.73-5.93-12.73-13.675 0-8.04 5.098-14.203 12.73-14.203 8.322 0 11.452 6.805 10.972 13.442h-18.012v.17c0 6.161 2.987 10.863 8.742 10.863 3.28 0 5.99-1.999 8.34-4.871v-.001zm-17.025-8.28l12.325-.29c.23-4.87-1.59-8.746-5.746-8.746-3.592 0-6.05 2.527-6.579 9.036zm47.025 11.38V56.135c0-5.281-2.74-8.16-6.79-8.16-3.88 0-7.33 2.053-10.45 4.22V48.15l-9.45.24v2.464c3.4.056 4.28 1.109 4.28 2.873v16.95c0 1.419-.88 1.999-4.28 2.062v2.463h13.26v-2.463c-2.93-.063-3.69-.643-3.69-2.061v-16.49c1.7-1.047 3.99-2.168 6.62-2.168 3.42 0 5.24 1.354 5.24 6.225v12.433c0 1.418-.77 1.998-3.77 2.061v2.463h13.33v-2.463c-3.46-.063-4.3-.643-4.3-2.061zm17.32 1.772c-2.48 0-3.53-1.355-3.53-4.582V51.262h8.33V48.39h-8.33v-9.8l-5.16 2.106v7.568l-4.93 1.064v1.935h4.82V68.51c0 4.58 2.22 7.341 6.68 7.341 3.75 0 5.69-1.354 7.86-5.28l-1.59-1.235c-1.34 1.884-2.52 3.113-4.16 3.113h.01zm29.88-4.871l1.46 1.462c-2.16 3.636-5.57 6.811-11.5 6.811-8.21 0-12.72-5.929-12.72-13.674 0-8.04 5.09-14.203 12.72-14.203 8.33 0 11.45 6.805 10.98 13.442h-18.02v.17c0 6.161 3 10.863 8.75 10.863 3.28 0 5.98-1.999 8.33-4.871zm-17.02-8.28l12.32-.29c.24-4.871-1.58-8.747-5.75-8.747-3.57 0-6.04 2.527-6.57 9.036zm37.41-11.323c-3.05 0-5.57 2.166-7.62 4.756v-4.58l-9.45.24v2.464c3.4.056 4.28 1.109 4.28 2.873v16.95c0 1.419-.88 1.999-4.28 2.062v2.463h14.49v-2.463c-3.87-.063-4.92-.643-4.92-2.061v-15.78c1.22-1.524 2.91-3.288 5.57-3.169-.07.33-.11.665-.12 1.002 0 2.111 1.58 3.107 3.34 3.107 1.82 0 3.17-1.587 3.17-3.46 0-2.35-1.47-4.404-4.46-4.404zM93.285 15.534C84.255 5.226 70.8 0 53.299 0 35.797 0 22.343 5.226 13.312 15.534 4.479 25.616 0 40.575 0 60.001c0 19.425 4.479 34.384 13.312 44.466C22.343 114.774 35.797 120 53.299 120c17.501 0 30.955-5.226 39.986-15.533 8.834-10.082 13.313-25.042 13.313-44.466 0-19.425-4.479-34.386-13.313-44.467zm-39.986 97.549c-30.908 0-46.363-17.694-46.363-53.082C6.936 24.61 22.39 6.916 53.3 6.916 84.207 6.916 99.662 24.61 99.662 60c0 35.388-15.455 53.082-46.363 53.082zm0-93.897L74.452 40.34l-4.892 4.89-12.802-12.802V54.24H71.94v6.917H56.758v5.354H71.94v6.916H56.758v5.353H71.94v6.918H56.758v15.116H49.84V85.698H34.658V78.78H49.84v-5.353H34.658v-6.916H49.84v-5.353H34.658V54.24H49.84V32.429L37.037 45.23l-4.89-4.892 21.152-21.153z" fill="#002569"/></g><defs><clipPath id="a"><path fill="#fff" d="M0 0h1111.23v120H0z"/></clipPath></defs></svg>