<?xml version="1.0" encoding="utf-8"?>
<!-- Generated by IcoMoon.io -->
<!DOCTYPE svg PUBLIC "-//W3C//DTD SVG 1.1//EN" "http://www.w3.org/Graphics/SVG/1.1/DTD/svg11.dtd">
<svg version="1.1" xmlns="http://www.w3.org/2000/svg" xmlns:xlink="http://www.w3.org/1999/xlink" width="120" height="270">

  <!--Sensitise therapeutic implication levels icons-->
  <g transform="translate(10, 10)">
    <g transform="translate(5, 5)">
      <g transform="translate(7, 13)">
        <circle r="7" fill="#33A02C"></circle>
        <text transform="translate(0, 3)" text-anchor="middle" font-size="9" font-family="Sans-serif" font-weight="bold" fill="#FFFFFF">1</text>
      </g>
    </g>
    <g transform="translate(30, 5)">
      <g transform="translate(7, 13)">
        <circle r="7" fill="#1F78B4"></circle>
        <text transform="translate(0, 3)" text-anchor="middle" font-size="9" font-family="Sans-serif" font-weight="bold" fill="#FFFFFF">2</text>
      </g>
    </g>
    <g transform="translate(55, 5)">
      <g transform="translate(7, 13)">
        <circle r="7" fill="#984EA3"></circle>
        <text transform="translate(0, 3)" text-anchor="middle" font-size="9" font-family="Sans-serif" font-weight="bold" fill="#FFFFFF">3</text>
      </g>
    </g>
    <g transform="translate(80, 5)">
      <g transform="translate(7, 13)">
        <circle r="7" fill="#424242"></circle>
        <text transform="translate(0, 3)" text-anchor="middle" font-size="9" font-family="Sans-serif" font-weight="bold" fill="#FFFFFF">4</text>
      </g>
    </g>
  </g>

  <!--Resistant therapeutic implication levels icons-->
  <g transform="translate(10, 40)">
    <g transform="translate(5, 5)">
      <g transform="translate(7, 13)">
        <circle r="7" fill="#EE3424"></circle>
        <text transform="translate(0, 3)" text-anchor="middle" font-size="8" font-family="Sans-serif" font-weight="bold" fill="#FFFFFF">R1</text>
      </g>
    </g>
    <g transform="translate(30, 5)">
      <g transform="translate(7, 13)">
        <circle r="7" fill="#F79A92"></circle>
        <text transform="translate(0, 3)" text-anchor="middle" font-size="8" font-family="Sans-serif" font-weight="bold" fill="#FFFFFF">R2</text>
      </g>
    </g>
    <g transform="translate(55, 5)">
      <g transform="translate(7, 13)">
        <circle r="7" fill="#FCD6D3"></circle>
        <text transform="translate(0, 3)" text-anchor="middle" font-size="8" font-family="Sans-serif" font-weight="bold" fill="#FFFFFF">R3</text>
      </g>
    </g>
  </g>

  <!--Diagnostic implication levels icons-->
  <g transform="translate(10, 70)">
    <g transform="translate(5, 5)">
      <g transform="translate(7, 13)">
        <rect x="-7" y="-7" rx="4" ry="4" width="14" height="14" fill="#33A02C"></rect>
        <text transform="translate(0, 3)" text-anchor="middle" font-size="9" font-family="Sans-serif" font-weight="bold" fill="#FFFFFF">1</text>
      </g>
    </g>
    <g transform="translate(30, 5)">
      <g transform="translate(7, 13)">
        <rect x="-7" y="-7" rx="4" ry="4" width="14" height="14" fill="#1F78B4"></rect>
        <text transform="translate(0, 3)" text-anchor="middle" font-size="9" font-family="Sans-serif" font-weight="bold" fill="#FFFFFF">2</text>
      </g>
    </g>
    <g transform="translate(55, 5)">
      <g transform="translate(7, 13)">
        <rect x="-7" y="-7" rx="4" ry="4" width="14" height="14" fill="#984EA3"></rect>
        <text transform="translate(0, 3)" text-anchor="middle" font-size="9" font-family="Sans-serif" font-weight="bold" fill="#FFFFFF">3</text>
      </g>
    </g>
  </g>

  <!--Prognostic implication levels icons-->
  <g transform="translate(10, 100)">
    <g transform="translate(5, 5)">
      <g transform="translate(7, 13)">
        <path d = "M-7 -8 L-7 8 L7 0 z" fill="#33A02C"/>
        <text transform="translate(-3, 3)" text-anchor="middle" font-size="9" font-family="Sans-serif" font-weight="bold" fill="#FFFFFF">1</text>
      </g>
    </g>
    <g transform="translate(30, 5)">
      <g transform="translate(7, 13)">
        <path d = "M-7 -8 L-7 8 L7 0 z" fill="#1F78B4"/>
        <text transform="translate(-3, 3)" text-anchor="middle" font-size="9" font-family="Sans-serif" font-weight="bold" fill="#FFFFFF">2</text>
      </g>
    </g>
    <g transform="translate(55, 5)">
      <g transform="translate(7, 13)">
        <path d = "M-7 -8 L-7 8 L7 0 z" fill="#984EA3"/>
        <text transform="translate(-3, 3)" text-anchor="middle" font-size="9" font-family="Sans-serif" font-weight="bold" fill="#FFFFFF">3</text>
      </g>
    </g>
  </g>

  <!--Prognostic implication levels icons diamond -->
  <g transform="translate(10, 130)">
    <g transform="translate(5, 5)">
      <g transform="translate(7, 13)">
        <path d="m-7,1l6.58333,-8l6.58333,7.75l-6.58333,7.75l-6.58333,-7.75z" fill="#33A02C"/>
        <text transform="translate(-0.5, 4)" text-anchor="middle" font-size="9" font-family="Sans-serif" font-weight="bold" fill="#FFFFFF">1</text>
      </g>
    </g>
    <g transform="translate(30, 5)">
      <g transform="translate(7, 13)">
        <path d="m-7,1l6.58333,-8l6.58333,7.75l-6.58333,7.75l-6.58333,-7.75z" fill="#1F78B4"/>
        <text transform="translate(-0.5, 4)" text-anchor="middle" font-size="9" font-family="Sans-serif" font-weight="bold" fill="#FFFFFF">2</text>
      </g>
    </g>
    <g transform="translate(55, 5)">
      <g transform="translate(7, 13)">
        <path d="m-7,1l6.58333,-8l6.58333,7.75l-6.58333,7.75l-6.58333,-7.75z" fill="#984EA3"/>
        <text transform="translate(-0.5, 4)" text-anchor="middle" font-size="9" font-family="Sans-serif" font-weight="bold" fill="#FFFFFF">3</text>
      </g>
    </g>
  </g>

  <!--Prognostic implication levels icons regular triangel-->
  <g transform="translate(10, 160)">
    <g transform="translate(5, 5)">
      <g transform="translate(7, 13)">
        <path d = "M-7 -8 L-7 8 L7 0 z" fill="#33A02C" transform="rotate(270)"/>
        <text transform="translate(0, 5)" text-anchor="middle" font-size="9" font-family="Sans-serif" font-weight="bold" fill="#FFFFFF">1</text>
      </g>
    </g>
    <g transform="translate(30, 5)">
      <g transform="translate(7, 13)">
        <path d = "M-7 -8 L-7 8 L7 0 z" fill="#1F78B4" transform="rotate(270)"/>
        <text transform="translate(0, 5)" text-anchor="middle" font-size="9" font-family="Sans-serif" font-weight="bold" fill="#FFFFFF">2</text>
      </g>
    </g>
    <g transform="translate(55, 5)">
      <g transform="translate(7, 13)">
        <path d = "M-7 -8 L-7 8 L7 0 z" fill="#984EA3" transform="rotate(270)"/>
        <text transform="translate(0, 5)" text-anchor="middle" font-size="9" font-family="Sans-serif" font-weight="bold" fill="#FFFFFF">3</text>
      </g>
    </g>
  </g>

  <!--Prognostic implication levels icons pentagon-->
  <g transform="translate(10, 190)">
    <g transform="translate(5, 5)">
      <g transform="translate(0.5, 5)">
        <path d="m0,7l6.5,-5l6.5,5l-2.5,8l-8,0l-2.5,-8z" fill="#33A02C"/>
        <text transform="translate(6.5, 13)" text-anchor="middle" font-size="9" font-family="Sans-serif" font-weight="bold" fill="#FFFFFF">1</text>
      </g>
    </g>
    <g transform="translate(30, 5)">
      <g transform="translate(0.5, 5)">
        <path d="m0,7l6.5,-5l6.5,5l-2.5,8l-8,0l-2.5,-8z" fill="#1F78B4"/>
        <text transform="translate(6.5, 13)" text-anchor="middle" font-size="9" font-family="Sans-serif" font-weight="bold" fill="#FFFFFF">2</text>
      </g>
    </g>
    <g transform="translate(55, 5)">
      <g transform="translate(0.5, 5)">
        <path d="m0,7l6.5,-5l6.5,5l-2.5,8l-8,0l-2.5,-8z" fill="#984EA3"/>
        <text transform="translate(6.5, 13)" text-anchor="middle" font-size="9" font-family="Sans-serif" font-weight="bold" fill="#FFFFFF">3</text>
      </g>
    </g>
  </g>

  <!--Prognostic implication levels icons hexagon-->
  <g transform="translate(10, 220)">
    <g transform="translate(5, 5)">
      <g transform="translate(0, 5)">
        <path d="m0,8l3,-6l8,0l3,6l-3,6l-8,0l-3,-6z" fill="#33A02C"/>
        <text transform="translate(7, 11.5)" text-anchor="middle" font-size="9" font-family="Sans-serif" font-weight="bold" fill="#FFFFFF">1</text>
      </g>
    </g>
    <g transform="translate(30, 5)">
      <g transform="translate(0, 5)">
        <path d="m0,8l3,-6l8,0l3,6l-3,6l-8,0l-3,-6z" fill="#1F78B4"/>
        <text transform="translate(7, 11.5)" text-anchor="middle" font-size="9" font-family="Sans-serif" font-weight="bold" fill="#FFFFFF">2</text>
      </g>
    </g>
    <g transform="translate(55, 5)">
      <g transform="translate(0, 5)">
        <path d="m0,8l3,-6l8,0l3,6l-3,6l-8,0l-3,-6z" fill="#984EA3"/>
        <text transform="translate(7, 11.5)" text-anchor="middle" font-size="9" font-family="Sans-serif" font-weight="bold" fill="#FFFFFF">3</text>
      </g>
    </g>
  </g>
</svg>
