<svg xmlns="http://www.w3.org/2000/svg" width="200" height="800"><g transform="translate(22 28)"><circle r="6" fill="none" stroke-width="2" stroke="#007FFF"/><circle r="3" fill="none" stroke-width="2" stroke="#007FFF"/><circle r="1.5" fill="#007FFF"/></g><g transform="translate(15 21)"><circle transform="translate(13)" r="6" fill="#33A02C"/><text transform="translate(13 3.5)" text-anchor="middle" font-size="10" font-family="Sans-serif" stroke-width="0" fill="#fff">1</text></g><g transform="translate(47 28)"><circle r="6" fill="none" stroke-width="2" stroke="#007FFF"/><circle r="3" fill="none" stroke-width="2" stroke="#007FFF"/><circle r="1.5" fill="#007FFF"/></g><g transform="translate(40 21)"><circle transform="translate(13)" r="6" fill="#1F78B4"/><text transform="translate(13 3.5)" text-anchor="middle" font-size="10" font-family="Sans-serif" stroke-width="0" fill="#fff">2</text></g><g transform="translate(72 28)"><circle r="6" fill="none" stroke-width="2" stroke="#007FFF"/><circle r="3" fill="none" stroke-width="2" stroke="#007FFF"/><circle r="1.5" fill="#007FFF"/></g><g transform="translate(65 21)"><circle transform="translate(13)" r="6" fill="#80B1D3"/><text transform="translate(13 3.5)" text-anchor="middle" font-size="10" font-family="Sans-serif" stroke-width="0" fill="#fff">2</text></g><g transform="translate(97 28)"><circle r="6" fill="none" stroke-width="2" stroke="#007FFF"/><circle r="3" fill="none" stroke-width="2" stroke="#007FFF"/><circle r="1.5" fill="#007FFF"/></g><g transform="translate(90 21)"><circle transform="translate(13)" r="6" fill="#984EA3"/><text transform="translate(13 3.5)" text-anchor="middle" font-size="10" font-family="Sans-serif" stroke-width="0" fill="#fff">3</text></g><g transform="translate(122 28)"><circle r="6" fill="none" stroke-width="2" stroke="#007FFF"/><circle r="3" fill="none" stroke-width="2" stroke="#007FFF"/><circle r="1.5" fill="#007FFF"/></g><g transform="translate(115 21)"><circle transform="translate(13)" r="6" fill="#BE98CE"/><text transform="translate(13 3.5)" text-anchor="middle" font-size="10" font-family="Sans-serif" stroke-width="0" fill="#fff">3</text></g><g transform="translate(147 28)"><circle r="6" fill="none" stroke-width="2" stroke="#007FFF"/><circle r="3" fill="none" stroke-width="2" stroke="#007FFF"/><circle r="1.5" fill="#007FFF"/></g><g transform="translate(140 21)"><circle transform="translate(13)" r="6" fill="#424242"/><text transform="translate(13 3.5)" text-anchor="middle" font-size="10" font-family="Sans-serif" stroke-width="0" fill="#fff">4</text></g><g transform="translate(22 58)"><circle r="6" fill="none" stroke-width="2" stroke="#007FFF"/><circle r="3" fill="none" stroke-width="2" stroke="#007FFF"/><circle r="1.5" fill="#007FFF"/></g><g transform="translate(15 51)"><circle transform="translate(13)" r="6" fill="#EE3424"/><text transform="translate(13 3.5)" text-anchor="middle" font-size="10" font-family="Sans-serif" stroke-width="0" fill="#fff">1</text></g><g transform="translate(47 58)"><circle r="6" fill="none" stroke-width="2" stroke="#007FFF"/><circle r="3" fill="none" stroke-width="2" stroke="#007FFF"/><circle r="1.5" fill="#007FFF"/></g><g transform="translate(40 51)"><circle transform="translate(13)" r="6" fill="#F79A92"/><text transform="translate(13 3.5)" text-anchor="middle" font-size="10" font-family="Sans-serif" stroke-width="0" fill="#fff">2</text></g><g transform="translate(72 58)"><circle r="6" fill="none" stroke-width="2" stroke="#007FFF"/><circle r="3" fill="none" stroke-width="2" stroke="#007FFF"/><circle r="1.5" fill="#007FFF"/></g><g transform="translate(65 51)"><circle transform="translate(13)" r="6" fill="#FCD6D3"/><text transform="translate(13 3.5)" text-anchor="middle" font-size="10" font-family="Sans-serif" stroke-width="0" fill="#fff">3</text></g><g transform="translate(22 88)"><circle r="6" fill="none" stroke-width="2" stroke="#007FFF"/><circle r="3" fill="none" stroke-width="2" stroke="#007FFF"/><circle r="1.5" fill="#007FFF"/></g><g transform="translate(15 81)"><circle transform="translate(9)" r="6" fill="red"/><circle transform="translate(13)" r="6" fill="#33A02C"/><text transform="translate(13 3.5)" text-anchor="middle" font-size="10" font-family="Sans-serif" stroke-width="0" fill="#fff">1</text></g><g transform="translate(47 88)"><circle r="6" fill="none" stroke-width="2" stroke="#007FFF"/><circle r="3" fill="none" stroke-width="2" stroke="#007FFF"/><circle r="1.5" fill="#007FFF"/></g><g transform="translate(40 81)"><circle transform="translate(9)" r="6" fill="red"/><circle transform="translate(13)" r="6" fill="#1F78B4"/><text transform="translate(13 3.5)" text-anchor="middle" font-size="10" font-family="Sans-serif" stroke-width="0" fill="#fff">2</text></g><g transform="translate(72 88)"><circle r="6" fill="none" stroke-width="2" stroke="#007FFF"/><circle r="3" fill="none" stroke-width="2" stroke="#007FFF"/><circle r="1.5" fill="#007FFF"/></g><g transform="translate(65 81)"><circle transform="translate(9)" r="6" fill="red"/><circle transform="translate(13)" r="6" fill="#80B1D3"/><text transform="translate(13 3.5)" text-anchor="middle" font-size="10" font-family="Sans-serif" stroke-width="0" fill="#fff">2</text></g><g transform="translate(97 88)"><circle r="6" fill="none" stroke-width="2" stroke="#007FFF"/><circle r="3" fill="none" stroke-width="2" stroke="#007FFF"/><circle r="1.5" fill="#007FFF"/></g><g transform="translate(90 81)"><circle transform="translate(9)" r="6" fill="red"/><circle transform="translate(13)" r="6" fill="#984EA3"/><text transform="translate(13 3.5)" text-anchor="middle" font-size="10" font-family="Sans-serif" stroke-width="0" fill="#fff">3</text></g><g transform="translate(122 88)"><circle r="6" fill="none" stroke-width="2" stroke="#007FFF"/><circle r="3" fill="none" stroke-width="2" stroke="#007FFF"/><circle r="1.5" fill="#007FFF"/></g><g transform="translate(115 81)"><circle transform="translate(9)" r="6" fill="red"/><circle transform="translate(13)" r="6" fill="#BE98CE"/><text transform="translate(13 3.5)" text-anchor="middle" font-size="10" font-family="Sans-serif" stroke-width="0" fill="#fff">3</text></g><g transform="translate(147 88)"><circle r="6" fill="none" stroke-width="2" stroke="#007FFF"/><circle r="3" fill="none" stroke-width="2" stroke="#007FFF"/><circle r="1.5" fill="#007FFF"/></g><g transform="translate(140 81)"><circle transform="translate(9)" r="6" fill="red"/><circle transform="translate(13)" r="6" fill="#424242"/><text transform="translate(13 3.5)" text-anchor="middle" font-size="10" font-family="Sans-serif" stroke-width="0" fill="#fff">4</text></g><g transform="translate(22 118)"><circle r="6" fill="none" stroke-width="2" stroke="#696969"/><circle r="3" fill="none" stroke-width="2" stroke="#696969"/><circle r="1.5" fill="#696969"/></g><g transform="translate(15 111)"><circle transform="translate(13)" r="6" fill="#33A02C"/><text transform="translate(13 3.5)" text-anchor="middle" font-size="10" font-family="Sans-serif" stroke-width="0" fill="#fff">1</text></g><g transform="translate(47 118)"><circle r="6" fill="none" stroke-width="2" stroke="#696969"/><circle r="3" fill="none" stroke-width="2" stroke="#696969"/><circle r="1.5" fill="#696969"/></g><g transform="translate(40 111)"><circle transform="translate(13)" r="6" fill="#1F78B4"/><text transform="translate(13 3.5)" text-anchor="middle" font-size="10" font-family="Sans-serif" stroke-width="0" fill="#fff">2</text></g><g transform="translate(72 118)"><circle r="6" fill="none" stroke-width="2" stroke="#696969"/><circle r="3" fill="none" stroke-width="2" stroke="#696969"/><circle r="1.5" fill="#696969"/></g><g transform="translate(65 111)"><circle transform="translate(13)" r="6" fill="#80B1D3"/><text transform="translate(13 3.5)" text-anchor="middle" font-size="10" font-family="Sans-serif" stroke-width="0" fill="#fff">2</text></g><g transform="translate(97 118)"><circle r="6" fill="none" stroke-width="2" stroke="#696969"/><circle r="3" fill="none" stroke-width="2" stroke="#696969"/><circle r="1.5" fill="#696969"/></g><g transform="translate(90 111)"><circle transform="translate(13)" r="6" fill="#984EA3"/><text transform="translate(13 3.5)" text-anchor="middle" font-size="10" font-family="Sans-serif" stroke-width="0" fill="#fff">3</text></g><g transform="translate(122 118)"><circle r="6" fill="none" stroke-width="2" stroke="#696969"/><circle r="3" fill="none" stroke-width="2" stroke="#696969"/><circle r="1.5" fill="#696969"/></g><g transform="translate(115 111)"><circle transform="translate(13)" r="6" fill="#BE98CE"/><text transform="translate(13 3.5)" text-anchor="middle" font-size="10" font-family="Sans-serif" stroke-width="0" fill="#fff">3</text></g><g transform="translate(147 118)"><circle r="6" fill="none" stroke-width="2" stroke="#696969"/><circle r="3" fill="none" stroke-width="2" stroke="#696969"/><circle r="1.5" fill="#696969"/></g><g transform="translate(140 111)"><circle transform="translate(13)" r="6" fill="#424242"/><text transform="translate(13 3.5)" text-anchor="middle" font-size="10" font-family="Sans-serif" stroke-width="0" fill="#fff">4</text></g><g transform="translate(22 148)"><circle r="6" fill="none" stroke-width="2" stroke="#696969"/><circle r="3" fill="none" stroke-width="2" stroke="#696969"/><circle r="1.5" fill="#696969"/></g><g transform="translate(15 141)"><circle transform="translate(13)" r="6" fill="#EE3424"/><text transform="translate(13 3.5)" text-anchor="middle" font-size="10" font-family="Sans-serif" stroke-width="0" fill="#fff">1</text></g><g transform="translate(47 148)"><circle r="6" fill="none" stroke-width="2" stroke="#696969"/><circle r="3" fill="none" stroke-width="2" stroke="#696969"/><circle r="1.5" fill="#696969"/></g><g transform="translate(40 141)"><circle transform="translate(13)" r="6" fill="#F79A92"/><text transform="translate(13 3.5)" text-anchor="middle" font-size="10" font-family="Sans-serif" stroke-width="0" fill="#fff">2</text></g><g transform="translate(72 148)"><circle r="6" fill="none" stroke-width="2" stroke="#696969"/><circle r="3" fill="none" stroke-width="2" stroke="#696969"/><circle r="1.5" fill="#696969"/></g><g transform="translate(65 141)"><circle transform="translate(13)" r="6" fill="#FCD6D3"/><text transform="translate(13 3.5)" text-anchor="middle" font-size="10" font-family="Sans-serif" stroke-width="0" fill="#fff">3</text></g><g transform="translate(22 178)"><circle r="6" fill="none" stroke-width="2" stroke="#696969"/><circle r="3" fill="none" stroke-width="2" stroke="#696969"/><circle r="1.5" fill="#696969"/></g><g transform="translate(15 171)"><circle transform="translate(9)" r="6" fill="red"/><circle transform="translate(13)" r="6" fill="#33A02C"/><text transform="translate(13 3.5)" text-anchor="middle" font-size="10" font-family="Sans-serif" stroke-width="0" fill="#fff">1</text></g><g transform="translate(47 178)"><circle r="6" fill="none" stroke-width="2" stroke="#696969"/><circle r="3" fill="none" stroke-width="2" stroke="#696969"/><circle r="1.5" fill="#696969"/></g><g transform="translate(40 171)"><circle transform="translate(9)" r="6" fill="red"/><circle transform="translate(13)" r="6" fill="#1F78B4"/><text transform="translate(13 3.5)" text-anchor="middle" font-size="10" font-family="Sans-serif" stroke-width="0" fill="#fff">2</text></g><g transform="translate(72 178)"><circle r="6" fill="none" stroke-width="2" stroke="#696969"/><circle r="3" fill="none" stroke-width="2" stroke="#696969"/><circle r="1.5" fill="#696969"/></g><g transform="translate(65 171)"><circle transform="translate(9)" r="6" fill="red"/><circle transform="translate(13)" r="6" fill="#80B1D3"/><text transform="translate(13 3.5)" text-anchor="middle" font-size="10" font-family="Sans-serif" stroke-width="0" fill="#fff">2</text></g><g transform="translate(97 178)"><circle r="6" fill="none" stroke-width="2" stroke="#696969"/><circle r="3" fill="none" stroke-width="2" stroke="#696969"/><circle r="1.5" fill="#696969"/></g><g transform="translate(90 171)"><circle transform="translate(9)" r="6" fill="red"/><circle transform="translate(13)" r="6" fill="#984EA3"/><text transform="translate(13 3.5)" text-anchor="middle" font-size="10" font-family="Sans-serif" stroke-width="0" fill="#fff">3</text></g><g transform="translate(122 178)"><circle r="6" fill="none" stroke-width="2" stroke="#696969"/><circle r="3" fill="none" stroke-width="2" stroke="#696969"/><circle r="1.5" fill="#696969"/></g><g transform="translate(115 171)"><circle transform="translate(9)" r="6" fill="red"/><circle transform="translate(13)" r="6" fill="#BE98CE"/><text transform="translate(13 3.5)" text-anchor="middle" font-size="10" font-family="Sans-serif" stroke-width="0" fill="#fff">3</text></g><g transform="translate(147 178)"><circle r="6" fill="none" stroke-width="2" stroke="#696969"/><circle r="3" fill="none" stroke-width="2" stroke="#696969"/><circle r="1.5" fill="#696969"/></g><g transform="translate(140 171)"><circle transform="translate(9)" r="6" fill="red"/><circle transform="translate(13)" r="6" fill="#424242"/><text transform="translate(13 3.5)" text-anchor="middle" font-size="10" font-family="Sans-serif" stroke-width="0" fill="#fff">4</text></g><g transform="translate(22 208)"><circle r="6" fill="none" stroke-width="2" stroke="#AAA"/><circle r="3" fill="none" stroke-width="2" stroke="#AAA"/><circle r="1.5" fill="#AAA"/></g><g transform="translate(15 201)"><circle transform="translate(13)" r="6" fill="#33A02C"/><text transform="translate(13 3.5)" text-anchor="middle" font-size="10" font-family="Sans-serif" stroke-width="0" fill="#fff">1</text></g><g transform="translate(47 208)"><circle r="6" fill="none" stroke-width="2" stroke="#AAA"/><circle r="3" fill="none" stroke-width="2" stroke="#AAA"/><circle r="1.5" fill="#AAA"/></g><g transform="translate(40 201)"><circle transform="translate(13)" r="6" fill="#1F78B4"/><text transform="translate(13 3.5)" text-anchor="middle" font-size="10" font-family="Sans-serif" stroke-width="0" fill="#fff">2</text></g><g transform="translate(72 208)"><circle r="6" fill="none" stroke-width="2" stroke="#AAA"/><circle r="3" fill="none" stroke-width="2" stroke="#AAA"/><circle r="1.5" fill="#AAA"/></g><g transform="translate(65 201)"><circle transform="translate(13)" r="6" fill="#80B1D3"/><text transform="translate(13 3.5)" text-anchor="middle" font-size="10" font-family="Sans-serif" stroke-width="0" fill="#fff">2</text></g><g transform="translate(97 208)"><circle r="6" fill="none" stroke-width="2" stroke="#AAA"/><circle r="3" fill="none" stroke-width="2" stroke="#AAA"/><circle r="1.5" fill="#AAA"/></g><g transform="translate(90 201)"><circle transform="translate(13)" r="6" fill="#984EA3"/><text transform="translate(13 3.5)" text-anchor="middle" font-size="10" font-family="Sans-serif" stroke-width="0" fill="#fff">3</text></g><g transform="translate(122 208)"><circle r="6" fill="none" stroke-width="2" stroke="#AAA"/><circle r="3" fill="none" stroke-width="2" stroke="#AAA"/><circle r="1.5" fill="#AAA"/></g><g transform="translate(115 201)"><circle transform="translate(13)" r="6" fill="#BE98CE"/><text transform="translate(13 3.5)" text-anchor="middle" font-size="10" font-family="Sans-serif" stroke-width="0" fill="#fff">3</text></g><g transform="translate(147 208)"><circle r="6" fill="none" stroke-width="2" stroke="#AAA"/><circle r="3" fill="none" stroke-width="2" stroke="#AAA"/><circle r="1.5" fill="#AAA"/></g><g transform="translate(140 201)"><circle transform="translate(13)" r="6" fill="#424242"/><text transform="translate(13 3.5)" text-anchor="middle" font-size="10" font-family="Sans-serif" stroke-width="0" fill="#fff">4</text></g><g transform="translate(22 238)"><circle r="6" fill="none" stroke-width="2" stroke="#AAA"/><circle r="3" fill="none" stroke-width="2" stroke="#AAA"/><circle r="1.5" fill="#AAA"/></g><g transform="translate(15 231)"><circle transform="translate(13)" r="6" fill="#EE3424"/><text transform="translate(13 3.5)" text-anchor="middle" font-size="10" font-family="Sans-serif" stroke-width="0" fill="#fff">1</text></g><g transform="translate(47 238)"><circle r="6" fill="none" stroke-width="2" stroke="#AAA"/><circle r="3" fill="none" stroke-width="2" stroke="#AAA"/><circle r="1.5" fill="#AAA"/></g><g transform="translate(40 231)"><circle transform="translate(13)" r="6" fill="#F79A92"/><text transform="translate(13 3.5)" text-anchor="middle" font-size="10" font-family="Sans-serif" stroke-width="0" fill="#fff">2</text></g><g transform="translate(72 238)"><circle r="6" fill="none" stroke-width="2" stroke="#AAA"/><circle r="3" fill="none" stroke-width="2" stroke="#AAA"/><circle r="1.5" fill="#AAA"/></g><g transform="translate(65 231)"><circle transform="translate(13)" r="6" fill="#FCD6D3"/><text transform="translate(13 3.5)" text-anchor="middle" font-size="10" font-family="Sans-serif" stroke-width="0" fill="#fff">3</text></g><g transform="translate(22 268)"><circle r="6" fill="none" stroke-width="2" stroke="#AAA"/><circle r="3" fill="none" stroke-width="2" stroke="#AAA"/><circle r="1.5" fill="#AAA"/></g><g transform="translate(15 261)"><circle transform="translate(9)" r="6" fill="red"/><circle transform="translate(13)" r="6" fill="#33A02C"/><text transform="translate(13 3.5)" text-anchor="middle" font-size="10" font-family="Sans-serif" stroke-width="0" fill="#fff">1</text></g><g transform="translate(47 268)"><circle r="6" fill="none" stroke-width="2" stroke="#AAA"/><circle r="3" fill="none" stroke-width="2" stroke="#AAA"/><circle r="1.5" fill="#AAA"/></g><g transform="translate(40 261)"><circle transform="translate(9)" r="6" fill="red"/><circle transform="translate(13)" r="6" fill="#1F78B4"/><text transform="translate(13 3.5)" text-anchor="middle" font-size="10" font-family="Sans-serif" stroke-width="0" fill="#fff">2</text></g><g transform="translate(72 268)"><circle r="6" fill="none" stroke-width="2" stroke="#AAA"/><circle r="3" fill="none" stroke-width="2" stroke="#AAA"/><circle r="1.5" fill="#AAA"/></g><g transform="translate(65 261)"><circle transform="translate(9)" r="6" fill="red"/><circle transform="translate(13)" r="6" fill="#80B1D3"/><text transform="translate(13 3.5)" text-anchor="middle" font-size="10" font-family="Sans-serif" stroke-width="0" fill="#fff">2</text></g><g transform="translate(97 268)"><circle r="6" fill="none" stroke-width="2" stroke="#AAA"/><circle r="3" fill="none" stroke-width="2" stroke="#AAA"/><circle r="1.5" fill="#AAA"/></g><g transform="translate(90 261)"><circle transform="translate(9)" r="6" fill="red"/><circle transform="translate(13)" r="6" fill="#984EA3"/><text transform="translate(13 3.5)" text-anchor="middle" font-size="10" font-family="Sans-serif" stroke-width="0" fill="#fff">3</text></g><g transform="translate(122 268)"><circle r="6" fill="none" stroke-width="2" stroke="#AAA"/><circle r="3" fill="none" stroke-width="2" stroke="#AAA"/><circle r="1.5" fill="#AAA"/></g><g transform="translate(115 261)"><circle transform="translate(9)" r="6" fill="red"/><circle transform="translate(13)" r="6" fill="#BE98CE"/><text transform="translate(13 3.5)" text-anchor="middle" font-size="10" font-family="Sans-serif" stroke-width="0" fill="#fff">3</text></g><g transform="translate(147 268)"><circle r="6" fill="none" stroke-width="2" stroke="#AAA"/><circle r="3" fill="none" stroke-width="2" stroke="#AAA"/><circle r="1.5" fill="#AAA"/></g><g transform="translate(140 261)"><circle transform="translate(9)" r="6" fill="red"/><circle transform="translate(13)" r="6" fill="#424242"/><text transform="translate(13 3.5)" text-anchor="middle" font-size="10" font-family="Sans-serif" stroke-width="0" fill="#fff">4</text></g><circle r="6" fill="none" stroke-width="2" stroke="#CCC" transform="translate(22 298)"/><g transform="translate(15 291)"><circle transform="translate(13)" r="6" fill="#33A02C"/><text transform="translate(13 3.5)" text-anchor="middle" font-size="10" font-family="Sans-serif" stroke-width="0" fill="#fff">1</text></g><circle r="6" fill="none" stroke-width="2" stroke="#CCC" transform="translate(47 298)"/><g transform="translate(40 291)"><circle transform="translate(13)" r="6" fill="#1F78B4"/><text transform="translate(13 3.5)" text-anchor="middle" font-size="10" font-family="Sans-serif" stroke-width="0" fill="#fff">2</text></g><circle r="6" fill="none" stroke-width="2" stroke="#CCC" transform="translate(72 298)"/><g transform="translate(65 291)"><circle transform="translate(13)" r="6" fill="#80B1D3"/><text transform="translate(13 3.5)" text-anchor="middle" font-size="10" font-family="Sans-serif" stroke-width="0" fill="#fff">2</text></g><circle r="6" fill="none" stroke-width="2" stroke="#CCC" transform="translate(97 298)"/><g transform="translate(90 291)"><circle transform="translate(13)" r="6" fill="#984EA3"/><text transform="translate(13 3.5)" text-anchor="middle" font-size="10" font-family="Sans-serif" stroke-width="0" fill="#fff">3</text></g><circle r="6" fill="none" stroke-width="2" stroke="#CCC" transform="translate(122 298)"/><g transform="translate(115 291)"><circle transform="translate(13)" r="6" fill="#BE98CE"/><text transform="translate(13 3.5)" text-anchor="middle" font-size="10" font-family="Sans-serif" stroke-width="0" fill="#fff">3</text></g><circle r="6" fill="none" stroke-width="2" stroke="#CCC" transform="translate(147 298)"/><g transform="translate(140 291)"><circle transform="translate(13)" r="6" fill="#424242"/><text transform="translate(13 3.5)" text-anchor="middle" font-size="10" font-family="Sans-serif" stroke-width="0" fill="#fff">4</text></g><circle r="6" fill="none" stroke-width="2" stroke="#CCC" transform="translate(22 328)"/><g transform="translate(15 321)"><circle transform="translate(13)" r="6" fill="#EE3424"/><text transform="translate(13 3.5)" text-anchor="middle" font-size="10" font-family="Sans-serif" stroke-width="0" fill="#fff">1</text></g><circle r="6" fill="none" stroke-width="2" stroke="#CCC" transform="translate(47 328)"/><g transform="translate(40 321)"><circle transform="translate(13)" r="6" fill="#F79A92"/><text transform="translate(13 3.5)" text-anchor="middle" font-size="10" font-family="Sans-serif" stroke-width="0" fill="#fff">2</text></g><circle r="6" fill="none" stroke-width="2" stroke="#CCC" transform="translate(72 328)"/><g transform="translate(65 321)"><circle transform="translate(13)" r="6" fill="#FCD6D3"/><text transform="translate(13 3.5)" text-anchor="middle" font-size="10" font-family="Sans-serif" stroke-width="0" fill="#fff">3</text></g><circle r="6" fill="none" stroke-width="2" stroke="#CCC" transform="translate(22 358)"/><g transform="translate(15 351)"><circle transform="translate(9)" r="6" fill="red"/><circle transform="translate(13)" r="6" fill="#33A02C"/><text transform="translate(13 3.5)" text-anchor="middle" font-size="10" font-family="Sans-serif" stroke-width="0" fill="#fff">1</text></g><circle r="6" fill="none" stroke-width="2" stroke="#CCC" transform="translate(47 358)"/><g transform="translate(40 351)"><circle transform="translate(9)" r="6" fill="red"/><circle transform="translate(13)" r="6" fill="#1F78B4"/><text transform="translate(13 3.5)" text-anchor="middle" font-size="10" font-family="Sans-serif" stroke-width="0" fill="#fff">2</text></g><circle r="6" fill="none" stroke-width="2" stroke="#CCC" transform="translate(72 358)"/><g transform="translate(65 351)"><circle transform="translate(9)" r="6" fill="red"/><circle transform="translate(13)" r="6" fill="#80B1D3"/><text transform="translate(13 3.5)" text-anchor="middle" font-size="10" font-family="Sans-serif" stroke-width="0" fill="#fff">2</text></g><circle r="6" fill="none" stroke-width="2" stroke="#CCC" transform="translate(97 358)"/><g transform="translate(90 351)"><circle transform="translate(9)" r="6" fill="red"/><circle transform="translate(13)" r="6" fill="#984EA3"/><text transform="translate(13 3.5)" text-anchor="middle" font-size="10" font-family="Sans-serif" stroke-width="0" fill="#fff">3</text></g><circle r="6" fill="none" stroke-width="2" stroke="#CCC" transform="translate(122 358)"/><g transform="translate(115 351)"><circle transform="translate(9)" r="6" fill="red"/><circle transform="translate(13)" r="6" fill="#BE98CE"/><text transform="translate(13 3.5)" text-anchor="middle" font-size="10" font-family="Sans-serif" stroke-width="0" fill="#fff">3</text></g><circle r="6" fill="none" stroke-width="2" stroke="#CCC" transform="translate(147 358)"/><g transform="translate(140 351)"><circle transform="translate(9)" r="6" fill="red"/><circle transform="translate(13)" r="6" fill="#424242"/><text transform="translate(13 3.5)" text-anchor="middle" font-size="10" font-family="Sans-serif" stroke-width="0" fill="#fff">4</text></g><g transform="translate(22 388)"><circle r="6" fill="none" stroke-width="2" stroke="#007FFF"/><circle r="3" fill="none" stroke-width="2" stroke="#007FFF"/><circle r="1.5" fill="#007FFF"/></g><g transform="translate(47 388)"><circle r="6" fill="none" stroke-width="2" stroke="#696969"/><circle r="3" fill="none" stroke-width="2" stroke="#696969"/><circle r="1.5" fill="#696969"/></g><g transform="translate(72 388)"><circle r="6" fill="none" stroke-width="2" stroke="#AAA"/><circle r="3" fill="none" stroke-width="2" stroke="#AAA"/><circle r="1.5" fill="#AAA"/></g><circle r="6" fill="none" stroke-width="2" stroke="#696969" transform="translate(97 388)"/><circle r="6" fill="none" stroke-width="2" stroke="#CCC" transform="translate(122 388)"/></svg>